<?xml version="1.0" encoding="UTF-8"?>
<!DOCTYPE svg PUBLIC "-//W3C//DTD SVG 1.1//EN" "http://www.w3.org/Graphics/SVG/1.1/DTD/svg11.dtd">
<!-- Creator: CorelDRAW X7 -->
<svg xmlns="http://www.w3.org/2000/svg" xml:space="preserve" width="467.953mm" height="85.8518mm" version="1.1" style="shape-rendering:geometricPrecision; text-rendering:geometricPrecision; image-rendering:optimizeQuality; fill-rule:evenodd; clip-rule:evenodd"
viewBox="0 0 46795 8585"
 xmlns:xlink="http://www.w3.org/1999/xlink">
 <defs>
  <style type="text/css">
   <![CDATA[
    .fil2 {fill:black}
    .fil7 {fill:#1C1C1C}
    .fil14 {fill:#1E1E1E}
    .fil9 {fill:#202020}
    .fil6 {fill:#232323}
    .fil19 {fill:#242424}
    .fil8 {fill:#262626}
    .fil3 {fill:#282828}
    .fil17 {fill:#2A2A2A}
    .fil4 {fill:#2B2B2B}
    .fil16 {fill:#2C2C2C}
    .fil5 {fill:#2E2E2E}
    .fil18 {fill:#2F2F2F}
    .fil10 {fill:#303030}
    .fil11 {fill:#323232}
    .fil20 {fill:#333333}
    .fil12 {fill:#343434}
    .fil13 {fill:#353535}
    .fil15 {fill:#373737}
    .fil0 {fill:#545454}
    .fil1 {fill:#E67E22}
   ]]>
  </style>
 </defs>
 <g id="Слой_x0020_1">
  <metadata id="CorelCorpID_0Corel-Layer"/>
  <g id="_104290789664">
   <path class="fil0" d="M30415 2769c-50,201 -44,178 -233,242 -195,66 -204,47 -354,-45 -130,-81 -255,-22 -388,-87 -115,-57 -219,-126 -371,-117 -56,4 -291,82 -371,102 -139,35 -245,63 -370,121 -469,220 -689,1239 -665,1723 7,147 45,281 51,440 13,400 231,687 479,959 137,152 293,336 536,429 38,15 368,52 423,50 90,-4 671,-175 746,-219 184,-110 483,-684 667,-774 243,-119 235,-20 321,-169 187,-327 535,-238 552,-56 20,213 -19,234 -70,402 -39,128 15,131 -110,382 -133,267 -315,696 -544,896 -244,213 -183,385 -942,496 -148,22 -732,-39 -872,-77 -266,-73 -1036,-555 -1186,-745 -72,-90 -134,-155 -251,-223 -170,-100 -114,-112 -221,-253 -72,-95 -165,-116 -234,-241 -56,-101 -105,-228 -158,-333 -159,-319 -169,-399 -169,-795 0,-440 -55,-423 25,-907 49,-302 129,-455 241,-707 47,-105 -4,-501 198,-767 95,-125 74,-160 222,-251 317,-195 286,-220 682,-285 170,-28 229,-54 377,-113 118,-48 221,-85 346,-129 118,-41 215,-157 310,-155 130,2 305,20 442,31 226,18 212,19 359,131 111,85 289,33 526,439 44,76 148,240 164,311 48,216 27,247 -158,294zm-3689 -2350c-5,4 -10,8 -14,10l-282 113c-83,21 -63,48 -139,60 -15,19 -9,14 -27,32 -2,1 -27,23 -28,23 -20,17 -25,21 -48,37 -40,28 -76,66 -127,69l-9 30 -109 139c-2,-3 -7,10 -11,14 -19,12 -8,3 -25,28 -92,140 -75,305 -80,396 23,17 26,5 44,73 91,341 317,278 108,408 -40,44 -17,34 -76,52 -28,60 -67,101 -131,131l-29 44 -48 47c-28,21 -68,76 -98,99 -22,51 -15,38 -50,78 -43,51 1,21 -63,51l-21 40c-14,36 22,30 -14,37l-36 10c-6,54 -7,23 -35,70l-82 135c-60,87 -42,80 -98,112 -13,69 -48,79 -68,155 -83,138 -107,220 -168,364 -53,126 -39,86 -69,107l-90 343c-28,111 -64,239 -81,357 -20,143 -57,217 -56,387 1,138 -9,315 4,448 45,29 25,14 33,88 10,117 44,266 71,374 22,90 83,277 87,362 37,28 27,1 71,125l173 415c11,19 18,31 31,55 3,7 13,27 16,33 11,25 3,2 13,32 29,21 13,-3 48,46 16,22 22,39 37,63 35,57 61,67 75,128 53,23 18,-1 57,61 29,44 23,30 55,73l-10 5 48 49c33,67 55,67 86,118 38,33 59,54 86,82 39,41 29,45 68,85 58,59 106,98 167,169l3 -9c44,34 57,54 93,85 48,41 60,39 108,95 47,30 143,133 205,142 50,33 44,16 69,59 53,29 91,56 146,90 61,38 106,48 139,106 71,13 104,53 172,66l217 114c239,76 278,128 643,218 304,76 450,117 782,117 612,0 719,49 1236,-79 340,-84 679,-180 999,-341 321,-162 797,-483 1044,-736 148,-151 172,-168 310,-350 32,-43 60,-99 103,-120 29,-75 6,-34 47,-65l314 -538c166,-328 356,-997 354,-1377 -4,-762 -144,-1362 -543,-2019 -93,-152 -251,-365 -366,-497l-442 -447c16,-45 67,-96 95,-133 195,-257 191,-550 -19,-797 -80,-93 -148,-135 -247,-210 -398,-303 -1230,-412 -1778,-480 -240,-31 -154,-39 -413,-39 -432,0 -570,-38 -1001,21 -246,33 -374,27 -702,89 -132,24 -239,47 -373,81l-351 92z"/>
   <path class="fil1" d="M17622 4792c0,-24 56,-240 64,-275 18,-81 32,-201 37,-285 14,-211 81,-332 142,-501 33,-90 69,-124 130,-209l118 -203c402,-803 418,-407 745,-559 173,-80 257,-114 378,-266 95,-118 37,-410 -17,-518 -43,-88 -241,-260 -345,-298 -40,-15 -100,-24 -138,-33 -147,-35 -214,61 -297,154 -445,504 -214,175 -543,439 -129,103 -185,58 -406,237 -162,131 -145,-33 -250,156 -122,219 -171,204 -248,328 -222,359 -104,359 -260,553 -162,202 -109,210 -125,366 -11,101 -31,42 -59,110 -16,39 -7,91 -14,139 -9,73 -63,184 -63,258 0,48 55,179 66,239 81,446 -13,325 5,501 7,68 22,168 35,255 9,64 43,162 60,228 20,84 117,336 162,396 43,58 89,104 131,157 87,107 175,188 273,286 177,177 105,123 323,253 256,153 450,307 752,365 304,59 587,96 899,10 431,-120 530,-153 821,-500 37,-45 63,-75 100,-120 177,-214 273,-468 374,-727 114,-292 129,-395 170,-711l-80 -558c-7,-34 -199,-302 -274,-606 -16,-61 -19,-135 -41,-179 -62,-122 -46,34 -192,-248 -53,-103 -111,-121 -249,-192 -66,-34 -215,-152 -287,-152 -131,0 -227,11 -286,171 -107,284 -48,326 41,446 36,47 65,81 92,128 28,49 44,94 73,147 59,112 245,133 266,394 6,75 10,121 19,201 9,72 32,99 32,189 0,20 -56,147 -64,191 -15,83 -14,148 -38,216 -76,217 -51,189 -51,457 -44,29 -70,42 -118,67 0,64 8,309 -4,352 -12,44 -158,153 -177,162 -40,20 -83,25 -130,39 -337,98 -315,148 -696,65 -100,-22 -49,7 -115,-54 -173,-162 -122,80 -259,-249 -73,-176 -77,-212 -181,-328 -250,-278 -51,-219 -216,-630 -21,-54 -85,-192 -85,-254z"/>
   <path class="fil1" d="M4517 5080c0,301 117,634 212,854 32,74 300,378 359,437l276 249c54,35 116,69 170,101 114,69 224,130 341,201 202,122 174,101 396,146 142,29 323,60 481,60 302,0 744,-132 958,-277 155,-106 480,-542 555,-699 47,-98 259,-604 280,-719 14,-78 23,-143 36,-218 63,-380 30,-177 -25,-534 -21,-137 0,-209 -66,-306 -86,-127 -200,-374 -233,-529 -37,-170 -7,-141 -121,-252 -128,-124 -80,-205 -187,-270l-435 -242c-102,0 -114,-11 -180,23 -124,63 -147,142 -175,333 -34,228 45,140 180,394 72,135 53,157 178,245 77,54 131,160 152,255 11,50 10,115 19,184 6,53 27,126 37,184 14,82 -49,161 -71,317 -39,276 -89,184 -89,418 0,94 17,101 17,187 -45,23 -74,43 -119,67 0,141 -17,235 -17,390 -113,30 -16,71 -307,167 -277,92 -476,150 -753,46 -80,-31 -61,-67 -130,-90 -148,-50 -63,78 -261,-383 -47,-110 -127,-162 -190,-249 -59,-82 -50,-219 -71,-353 -13,-81 -85,-245 -117,-324 -46,-109 -16,-139 28,-328 51,-218 37,-421 88,-555 88,-227 71,-269 209,-452 30,-40 59,-73 86,-117 70,-115 82,-233 230,-429 187,-248 106,-211 427,-217 163,-3 454,-195 535,-329 71,-117 26,-432 -57,-524 -94,-104 -217,-247 -378,-282 -67,-14 -128,-32 -170,-18 -119,40 -163,113 -240,199 -408,458 -162,129 -496,385 -189,144 -182,63 -413,247 -97,77 -65,28 -171,66 -51,17 -25,-2 -57,45 -57,83 -54,128 -132,206 -175,172 -249,339 -316,565 -74,250 -200,146 -204,473 -2,145 -32,60 -62,158 -18,59 -7,115 -30,191 -16,54 -40,120 -49,170 -13,78 104,390 104,530 0,67 -32,127 -32,203z"/>
   <path class="fil1" d="M33047 5080c0,343 127,769 318,1003 50,61 72,87 127,144 50,51 71,90 126,144 54,54 91,73 145,126 46,46 80,90 131,123l511 302c202,122 174,101 396,146 142,29 323,60 481,60 222,0 668,-109 806,-193 217,-131 204,-104 400,-344 121,-149 219,-254 307,-439 47,-98 259,-604 280,-719 14,-78 23,-143 36,-218 63,-380 31,-177 -25,-534 -9,-56 -9,-112 -18,-168 -25,-170 -208,-329 -281,-667 -36,-170 -6,-141 -121,-252 -179,-174 -15,-188 -255,-303 -213,-103 -357,-283 -547,-186 -119,61 -107,79 -136,169 -20,64 -29,96 -39,164 -12,80 -31,98 10,157 57,84 119,140 170,237 72,135 53,157 179,245 77,54 130,160 151,255 11,50 10,115 19,184 6,54 27,126 37,184 16,90 -45,132 -70,317 -37,271 -90,181 -90,418 0,94 17,101 17,187 -45,23 -74,43 -119,67 0,141 -17,235 -17,390 -64,17 -85,65 -138,99 -81,52 -480,172 -556,172 -403,0 -435,-127 -496,-148 -147,-50 -62,78 -260,-383 -91,-211 -207,-151 -238,-405 -62,-505 -198,-502 -155,-669 120,-470 42,-614 249,-1056 37,-79 127,-166 176,-248 136,-224 14,-125 318,-546 25,-35 33,-59 72,-79 125,-66 196,38 436,-73 188,-86 406,-218 406,-457 0,-97 -40,-281 -96,-344 -94,-104 -218,-247 -379,-282 -67,-14 -127,-32 -170,-18 -119,40 -163,113 -240,199 -256,288 -130,193 -365,295 -82,36 -127,115 -417,244 -77,35 -69,47 -127,93 -97,77 -65,28 -171,66 -54,18 -41,15 -100,120 -111,200 -120,118 -279,381 -140,232 -99,357 -199,461 -61,63 -59,58 -99,139 -42,84 -30,69 -32,188 -2,145 -32,60 -62,158 -17,59 -7,115 -29,191 -16,54 -41,120 -49,170 -12,67 52,239 73,341 67,334 -2,219 -2,392z"/>
   <path class="fil1" d="M38923 4453c0,-61 -20,-59 -31,-115l98 -88c-25,-109 -53,-215 -71,-337 -14,-96 24,-210 53,-308 59,-204 76,-600 215,-987 58,-162 54,-406 217,-477 84,-37 295,-75 416,-75 179,0 148,-14 305,67 70,36 77,52 131,106 247,248 159,372 220,475 119,199 120,256 184,510 230,917 49,768 78,987 35,254 -72,206 -43,365 19,108 75,280 59,369 -79,427 78,213 -68,560l-185 272c-71,110 -193,312 -296,399 -160,134 -313,135 -440,254 -106,101 -136,25 -347,110 -191,78 -134,87 -275,182 -69,-16 -67,-31 -122,-20 -83,18 -142,44 -193,112 -27,34 -48,54 -68,84 -49,76 -73,151 -12,218 148,166 316,74 514,63 206,-12 353,53 776,-35 216,-45 601,-294 708,-478 45,-77 82,-137 127,-212 275,-457 167,-313 341,-658 167,-331 13,-208 117,-560 59,-203 -15,-409 -20,-598 -3,-73 42,-193 58,-279 17,-95 18,-211 28,-310 19,-176 48,-97 48,-392l-63 -377c-56,-459 -42,-280 -180,-700 -66,-201 -86,-148 -129,-311 -41,-153 -76,-184 -136,-305 -108,-217 -67,-189 -234,-324 -245,-197 -51,-101 -276,-164 -89,-25 -33,-48 -116,-104 -118,-81 -144,-59 -250,-73 -162,-20 -409,-110 -561,-96 -76,6 -106,16 -205,16 -90,0 -271,53 -350,90 -55,26 -91,48 -146,74 -166,77 -356,81 -385,276 -19,134 -18,231 39,369l89 132c25,72 -25,74 5,179 65,231 38,273 -12,524 -27,131 -32,162 -35,321 -3,140 -186,504 -58,938 27,90 2,178 -16,292 -31,207 -3,479 -32,696l-108 620c-18,113 -21,239 -35,337 -17,114 -40,199 -40,316l14 338c-7,247 -44,337 38,678 50,209 139,254 304,254 146,0 165,-264 132,-317 -8,-13 -39,-46 -50,-69 -61,-129 -66,-577 -43,-743 32,-241 -27,-86 56,-418 64,-255 35,-227 59,-432 14,-123 97,-226 101,-373 2,-79 -2,-160 -2,-239 1,-204 62,-61 68,-406 2,-109 35,-109 35,-203z"/>
   <path class="fil1" d="M29576 7433c247,0 569,-69 763,-185 149,-88 138,-140 224,-233 89,-98 69,-13 219,-239 136,-204 223,-335 320,-576 41,-100 113,-211 129,-329 50,-354 89,-117 89,-520 -74,-2 -184,-78 -295,77 -141,195 -31,172 -228,212 -170,34 -203,72 -278,162 -73,89 -138,156 -205,253 -61,89 -111,184 -183,257 -123,123 -126,153 -247,193 -107,34 -216,76 -332,109 -438,123 -349,101 -788,57 -118,-12 -325,-164 -438,-240 -62,-41 -264,-292 -328,-365 -167,-192 -365,-495 -388,-747 -6,-71 -10,-134 -16,-221 -12,-170 -50,-239 -50,-459 0,-485 121,-978 357,-1387 266,-464 541,-420 979,-562 388,-125 397,11 640,93 143,47 202,-31 375,82 216,140 149,15 375,-3 3,-33 27,-139 40,-164 29,-57 44,-57 164,-57 -4,-145 -36,-186 -105,-301 -71,-117 -202,-393 -376,-437 -218,-55 -112,-50 -273,-150 -64,-40 -423,-56 -551,-60 -112,-3 -83,-28 -156,28 -142,109 -364,167 -579,253 -119,48 -163,73 -309,97 -115,18 -220,37 -335,72 -92,27 -292,163 -387,221 -55,34 -68,65 -101,120 -29,50 -52,72 -85,118 -66,94 -124,372 -130,497 -15,342 -81,205 -199,630 -53,189 -119,462 -106,707l17 390c0,147 -7,281 18,405 73,348 99,255 241,589 57,133 56,160 165,242 102,78 123,116 191,232 63,108 164,76 423,389 57,69 158,125 232,175l502 327c50,26 95,39 142,62 259,127 163,99 489,137 54,6 118,12 181,22 78,13 104,27 193,27z"/>
   <path class="fil1" d="M24751 1253c169,0 374,-290 172,-494 -109,-111 -37,73 -249,-191 -39,-49 -13,-40 -80,-56 -208,-49 -93,-46 -186,-102 -47,-28 -368,-72 -459,-116 -15,-8 -187,-175 -401,-175 -172,0 -350,93 -433,193 -150,178 -159,196 -376,335 -34,22 -46,30 -83,53 -54,32 -113,73 -153,117 -63,70 -11,47 -89,63 -79,17 -33,-3 -107,29 -103,44 -138,6 -245,26 -304,59 -316,296 -355,492 -17,88 -34,129 -61,209 -92,267 43,89 -48,443 -34,131 -65,326 -65,495l66 912c-5,83 -32,193 -32,290 0,102 25,228 33,323 19,229 53,437 52,659 -1,147 41,190 50,305 10,127 -12,229 17,339 94,352 120,533 119,948l75 991c42,276 -91,231 -116,402 -33,224 120,445 274,592 125,120 265,230 358,-6 113,-288 98,-357 -32,-641 -99,-217 -57,-299 -99,-596 -61,-433 -38,-546 -36,-997 1,-249 -123,-1146 -67,-1268 21,-45 55,-58 95,-91 34,-27 55,-53 86,-84 149,-142 17,-130 100,-239 86,-113 140,-31 272,-48 94,-11 172,-47 292,-48 230,-2 419,18 661,18 543,0 245,-28 457,-85l0 -135c-218,-146 -217,-8 -333,-56 -123,-50 -409,-114 -548,-114 -227,0 -717,122 -802,-129 -9,-27 4,-367 6,-447 6,-200 50,-423 100,-612 20,-78 2,-281 2,-386 0,-72 142,-383 181,-464 112,-234 227,-276 397,-415 128,-104 76,-47 147,-89 65,-39 6,0 44,-41 65,-69 461,-227 552,-227 212,0 228,45 393,80 156,34 287,38 454,38z"/>
   <path class="fil1" d="M42580 2625c0,90 20,112 6,158 -16,52 -91,79 -54,398 36,313 -54,208 -54,324 0,83 19,129 16,185 -4,54 -50,130 -50,171 0,73 19,87 14,134 -11,93 -56,14 -15,119 57,147 69,51 15,235 -24,84 10,170 28,266 21,109 -8,183 -8,295 0,51 25,94 38,148 18,70 3,266 47,360 18,39 63,78 77,126 41,143 -21,126 81,326 127,249 45,130 45,293 0,263 168,470 299,683 83,136 265,204 366,295 164,149 154,112 483,194 50,13 225,64 274,64 105,0 47,-35 170,17 169,71 206,48 392,66 93,9 489,-60 875,-11 105,13 92,-4 206,-4 57,-245 138,-234 -262,-297 -190,-30 -278,-75 -415,-75 -155,0 -7,26 -254,-34 -87,-22 -178,-34 -270,-53 -590,-117 -348,24 -989,-331 -283,-157 -436,-415 -624,-680 -147,-209 -314,-1001 -320,-1324 -2,-102 33,-209 35,-304 257,171 177,191 433,93 181,-69 286,-29 422,-52 315,-52 1059,-167 1362,-142 65,5 87,18 171,18 125,-1 237,-85 237,-138l0 -50c-191,-5 -336,-83 -414,-90 -52,-4 -15,8 -76,2 -83,-8 -66,-45 -140,-61 -185,-40 -190,70 -330,-77 -61,-63 -49,-43 -157,-46 -88,-1 -106,-17 -203,-17 -131,0 -273,13 -400,-6 -550,-84 -549,159 -766,247 -246,100 -156,-8 -128,-247 10,-81 -20,-62 13,-308 35,-250 54,-720 111,-922 73,-255 218,-262 549,-314 379,-60 1005,-10 1148,-72 133,-58 157,-21 310,-46 288,-46 311,-142 499,-194 89,-25 183,-33 281,-58 326,-82 73,-77 515,-77 132,0 198,187 491,118 2,-78 59,-161 -145,-295l-291 -182c-54,-22 -136,-12 -206,-32 -57,-17 -119,-38 -183,-53 -141,-34 -255,-33 -425,-49 -304,-31 -268,-134 -852,-68 -171,19 -857,19 -1081,19 -137,0 -451,-230 -590,-185l-294 114c-159,97 -215,124 -258,368 -100,577 0,396 233,714 31,42 40,89 44,160 4,87 -32,93 -32,184z"/>
   <path class="fil1" d="M1689 1118c0,-19 50,-68 85,-68 355,0 727,-33 1033,118 154,76 164,57 199,140 106,247 81,95 148,191 13,18 37,99 53,133l171 337c68,150 47,85 55,283 7,159 116,285 3,815 -24,109 -61,103 -98,191 -40,95 -14,108 -76,194 -38,52 -89,116 -117,171 -81,159 -91,279 -265,310 -213,38 -501,49 -710,-11 -367,-107 -396,-145 -396,108 0,70 200,163 271,169 470,38 173,65 745,18 243,-21 168,-34 304,-103 177,-90 68,8 242,-164 133,-131 64,-154 164,-226 203,-145 146,-175 228,-382 22,-57 44,-80 63,-139 56,-168 99,-470 99,-697 0,-82 -28,-92 -31,-153 -2,-58 48,-373 -83,-596 -53,-89 -59,-66 -79,-192 -20,-125 -27,-105 -81,-190 -94,-147 -97,-209 -202,-340 -109,-137 -280,-281 -453,-343 -260,-93 -368,-158 -613,-84 -168,51 -345,-82 -664,81 -412,209 -300,-84 -696,49 -163,55 -215,282 -208,393 5,91 118,622 110,693 -14,113 -48,244 -48,377 0,270 -28,418 -112,701 -58,195 -23,151 -23,349 0,130 -38,255 -58,382 -20,119 -14,272 -29,394 -14,117 -52,252 -64,377 -9,91 -15,112 -1,183 64,311 28,117 -25,451 -26,167 -84,554 -160,686 -109,187 -18,203 -18,439 0,184 -9,271 -136,356 0,327 -34,566 -75,856 -31,222 -33,405 43,598 55,137 58,121 202,121 126,0 37,-210 2,-257 -75,-103 -126,-271 -68,-418 93,-237 49,-246 49,-477 0,-145 123,-165 152,-507 7,-76 40,-99 68,-153 241,-457 285,-661 367,-1174l85 -355c12,-73 13,-121 26,-194 21,-116 79,-186 103,-338 19,-124 32,-255 62,-378 74,-299 20,-277 84,-576 34,-162 33,-309 50,-390 78,-381 20,-439 165,-936 35,-120 66,-221 100,-340 163,-571 58,-282 58,-483z"/>
   <path class="fil2" d="M32963 3420c0,-67 34,-84 50,-152l102 0c18,37 33,97 34,152 -79,21 -74,77 -170,85 -8,-38 -16,-39 -16,-85zm84 1660c0,-173 69,-58 2,-392 -21,-102 -85,-274 -73,-341 8,-50 33,-116 49,-170 22,-76 12,-132 29,-191 30,-98 60,-13 62,-158 2,-119 -10,-104 32,-188 40,-81 38,-76 99,-139 100,-104 59,-229 199,-461 159,-263 168,-181 279,-381 59,-105 46,-102 100,-120 106,-38 74,11 171,-66 58,-46 50,-58 127,-93 290,-129 335,-208 417,-244 235,-102 109,-7 365,-295 77,-86 121,-159 240,-199 43,-14 103,4 170,18 161,35 285,178 379,282 56,63 96,247 96,344 0,239 -218,371 -406,457 -240,111 -311,7 -436,73 -39,20 -47,44 -72,79 -304,421 -182,322 -318,546 -49,82 -139,169 -176,248 -207,442 -129,586 -249,1056 -43,167 93,164 155,669 31,254 147,194 238,405 198,461 113,333 260,383 61,21 93,148 496,148 76,0 475,-120 556,-172 53,-34 74,-82 138,-99 0,-155 17,-249 17,-390 45,-24 74,-44 119,-67 0,-86 -17,-93 -17,-187 0,-237 53,-147 90,-418 25,-185 86,-227 70,-317 -10,-58 -31,-130 -37,-184 -9,-69 -8,-134 -19,-184 -21,-95 -74,-201 -151,-255 -126,-88 -107,-110 -179,-245 -51,-97 -113,-153 -170,-237 -41,-59 -22,-77 -10,-157 10,-68 19,-100 39,-164 29,-90 17,-108 136,-169 190,-97 334,83 547,186 240,115 76,129 255,303 115,111 85,82 121,252 73,338 256,497 281,667 9,56 9,112 18,168 56,357 88,154 25,534 -13,75 -22,140 -36,218 -21,115 -233,621 -280,719 -88,185 -186,290 -307,439 -196,240 -183,213 -400,344 -138,84 -584,193 -806,193 -158,0 -339,-31 -481,-60 -222,-45 -194,-24 -396,-146l-511 -302c-51,-33 -85,-77 -131,-123 -54,-53 -91,-72 -145,-126 -55,-54 -76,-93 -126,-144 -55,-57 -77,-83 -127,-144 -191,-234 -318,-660 -318,-1003zm1660 -3268c0,-22 26,-86 33,-119 40,19 62,15 102,34 0,72 4,159 -119,169 -5,-67 -16,-40 -16,-84zm-8775 -866c17,-69 10,-45 45,-92 47,-64 4,-29 75,-61l9 -30 62 -52c16,-11 31,-24 49,-35 36,-24 73,-54 119,-74 76,-12 56,-39 139,-60 4,-4 9,-9 12,-11l284 -112 351 -92c134,-34 241,-57 373,-81 328,-62 456,-56 702,-89 431,-59 569,-21 1001,-21 259,0 173,8 413,39 548,68 1380,177 1778,480 99,75 167,117 247,210 210,247 214,540 19,797 -28,37 -79,88 -95,133l442 447c115,132 273,345 366,497 399,657 539,1257 543,2019 2,380 -188,1049 -354,1377l-314 538 -47 65c-43,21 -71,77 -103,120 -138,182 -162,199 -310,350 -247,253 -723,574 -1044,736 -320,161 -659,257 -999,341 -517,128 -624,79 -1236,79 -332,0 -478,-41 -782,-117 -365,-90 -404,-142 -643,-218 -53,-3 -77,-24 -122,-46 -13,-6 -38,-17 -45,-21 -56,-33 -25,-12 -50,-47 -68,-13 -101,-53 -172,-66 -61,-37 -257,-130 -285,-196l-55 -16 -14 -43c-62,-9 -158,-112 -205,-142l-65 -37c-58,-40 -104,-78 -136,-143l-3 9c-71,-32 -124,-100 -179,-156l-142 -180c-31,-51 -53,-51 -86,-118 -38,-15 -33,19 -33,-17 -29,0 -17,5 -15,-32l10 -5c-68,-30 -79,-68 -112,-134l-91 -113c-25,-42 -52,-78 -69,-124 -10,-30 -2,-7 -13,-32 -3,-6 -13,-26 -16,-33 -13,-24 -20,-36 -31,-55l-31 -39c-55,-86 -126,-263 -159,-360 -21,-59 -31,-74 -54,-141 -4,-85 -65,-272 -87,-362 -27,-108 -61,-257 -71,-374 -8,-14 -11,-15 -22,-44 -10,-25 -4,-19 -11,-44 -13,-133 -3,-310 -4,-448 -1,-170 36,-244 56,-387 17,-118 53,-246 81,-357l90 -343c36,-96 72,-153 106,-253 19,-55 25,-69 50,-119 34,-66 19,-67 81,-99 20,-76 55,-86 68,-155 29,-55 126,-203 180,-247 28,-47 29,-16 35,-70l50 -47 21 -40c49,-68 46,-78 113,-129 30,-23 70,-78 98,-99 15,-33 -18,-29 17,-29 0,-28 -5,-17 31,-18l29 -44 131 -131c59,-18 36,-8 76,-52 31,-71 3,-30 64,-73 -17,-44 -95,-115 -133,-177 -51,-84 -56,-137 -83,-231 5,-91 -12,-256 80,-396 17,-25 6,-16 25,-28zm-13 832c-57,78 -279,234 -400,396 -2,3 -5,7 -7,10 -2,3 -6,6 -8,9 -2,2 -6,6 -9,8l-457 660c-66,115 -113,199 -160,331 -164,461 -166,474 -264,955 -69,338 -45,751 28,1092 66,304 146,592 261,874 60,146 338,615 436,715 47,48 60,67 102,118l837 771c184,163 570,355 814,440l425 150c115,43 243,64 367,90 430,89 927,52 1370,52 367,0 736,-120 1053,-235l319 -120c90,-46 192,-89 281,-143 50,-30 83,-56 132,-88 131,-87 39,0 269,-171l249 -191c273,-213 536,-488 734,-774l320 -543c33,-58 33,-95 58,-161l212 -669c6,-26 9,-45 17,-84l31 -89c6,278 127,713 295,924 115,146 245,307 387,426 37,31 47,32 84,68 123,119 161,146 308,234 173,104 339,224 526,304 167,71 594,110 787,110 258,0 685,-109 843,-206 165,-101 156,-90 296,-230 172,-172 344,-374 453,-597 84,-172 258,-560 290,-759 89,-545 66,-471 -11,-993 -29,-191 -223,-350 -289,-710 -33,-181 -51,-134 -147,-242 -68,-77 -80,-185 -151,-256l-505 -291c-172,0 -228,-19 -365,75 -57,39 -80,65 -104,134 -159,460 -49,441 94,658 116,176 84,203 257,352 111,96 175,497 123,631 -41,105 -41,234 -75,333 -17,49 -43,97 -48,154 -6,62 6,144 0,204 -16,152 -119,-32 -119,507 -245,164 -592,259 -878,166 -56,-18 -95,-73 -144,-92 -80,-33 -20,32 -74,-45 -52,-72 -76,-166 -108,-247 -52,-130 -114,-161 -193,-265 -78,-102 -55,-265 -83,-390 -71,-318 -163,-183 -84,-522 46,-197 40,-415 101,-592 35,-101 84,-262 137,-338 72,-103 130,-148 182,-275 42,-102 208,-449 324,-489 144,-50 120,70 493,-100 110,-50 166,-131 247,-210 145,-145 159,-287 110,-508 -44,-198 -68,-220 -212,-364 -65,-66 -130,-114 -210,-162 -58,-35 -230,-71 -319,-71 -27,0 -97,39 -119,50 -59,30 -65,32 -101,86 -173,-116 -339,-88 -339,186 0,73 20,92 34,152 -142,12 -346,191 -526,270 -83,37 -124,100 -200,139 -160,80 -140,-39 -283,208l-147 192c-70,79 -222,303 -233,427 -133,-89 -62,-68 -237,-68 -138,0 -202,326 -107,430 39,43 49,45 124,45 -37,78 3,156 -26,228 -37,94 -58,34 -58,195l-17 0c0,-257 -195,-761 -302,-1019 -34,-82 -44,-68 -82,-138 -51,-93 -98,-194 -163,-277 -29,-37 -20,-19 -43,-59l-346 -433c-56,-55 -55,-69 -96,-124 -52,-69 -57,-32 -125,-96 -44,-42 -64,-73 -113,-106 21,-32 36,-56 61,-92 258,-369 159,-821 -217,-1073 -375,-253 -559,-300 -1012,-410l-394 -80c-700,-139 -1785,-116 -2497,-17 -319,44 -861,165 -1128,295 -42,20 -51,23 -94,41l-428 301c-141,127 -238,447 -198,608 39,155 96,279 184,410z"/>
   <path class="fil2" d="M43139 7095c62,-17 35,-18 84,-51 75,111 54,86 34,169l-118 0 0 -118zm-559 -4470c0,-91 36,-97 32,-184 -4,-71 -13,-118 -44,-160 -233,-318 -333,-137 -233,-714 43,-244 99,-271 258,-368l294 -114c139,-45 453,185 590,185 224,0 910,0 1081,-19 584,-66 548,37 852,68 170,16 284,15 425,49 64,15 126,36 183,53 70,20 152,10 206,32l291 182c204,134 147,217 145,295 -293,69 -359,-118 -491,-118 -442,0 -189,-5 -515,77 -98,25 -192,33 -281,58 -188,52 -211,148 -499,194 -153,25 -177,-12 -310,46 -143,62 -769,12 -1148,72 -331,52 -476,59 -549,314 -57,202 -76,672 -111,922 -33,246 -3,227 -13,308 -28,239 -118,347 128,247 217,-88 216,-331 766,-247 127,19 269,6 400,6 97,0 115,16 203,17 108,3 96,-17 157,46 140,147 145,37 330,77 74,16 57,53 140,61 61,6 24,-6 76,-2 78,7 223,85 414,90l0 50c0,53 -112,137 -237,138 -84,0 -106,-13 -171,-18 -303,-25 -1047,90 -1362,142 -136,23 -241,-17 -422,52 -256,98 -176,78 -433,-93 -2,95 -37,202 -35,304 6,323 173,1115 320,1324 188,265 341,523 624,680 641,355 399,214 989,331 92,19 183,31 270,53 247,60 99,34 254,34 137,0 225,45 415,75 400,63 319,52 262,297 -114,0 -101,17 -206,4 -386,-49 -782,20 -875,11 -186,-18 -223,5 -392,-66 -123,-52 -65,-17 -170,-17 -49,0 -224,-51 -274,-64 -329,-82 -319,-45 -483,-194 -101,-91 -283,-159 -366,-295 -131,-213 -299,-420 -299,-683 0,-163 82,-44 -45,-293 -102,-200 -40,-183 -81,-326 -14,-48 -59,-87 -77,-126 -44,-94 -29,-290 -47,-360 -13,-54 -38,-97 -38,-148 0,-112 29,-186 8,-295 -18,-96 -52,-182 -28,-266 54,-184 42,-88 -15,-235 -41,-105 4,-26 15,-119 5,-47 -14,-61 -14,-134 0,-41 46,-117 50,-171 3,-56 -16,-102 -16,-185 0,-116 90,-11 54,-324 -37,-319 38,-346 54,-398 14,-46 -6,-68 -6,-158zm-169 220l1 491c-64,163 -50,13 -51,288 -1,64 -67,376 -51,488 9,63 40,78 44,123 7,81 -66,56 -1,361 8,36 17,78 17,96 4,138 -45,148 24,404 56,204 -47,209 106,453 49,80 29,217 68,305 19,43 43,83 64,123 52,101 16,21 16,186 0,278 44,306 147,480 23,40 36,56 59,93 23,35 32,59 55,97 46,80 73,129 145,177 -73,108 -42,322 68,322 255,0 144,5 254,-68 99,66 56,85 216,122l546 131c69,5 95,-7 157,12 41,13 76,34 124,47l955 -8c138,2 442,90 547,-27 68,-75 79,-193 79,-294 0,-43 -52,-81 -80,-106 -43,-38 -59,-52 -122,-64l-1276 -215c-481,-70 -330,-37 -819,-298 -185,-98 -270,-193 -385,-360 -132,-193 -203,-259 -275,-470 -83,-247 -205,-633 -209,-908 -1,-58 -18,-151 -15,-172 12,-99 51,-15 100,-15 167,0 118,10 284,-53 202,-77 279,-33 420,-55 76,-11 124,-20 205,-32 127,-18 272,-32 421,-53 128,-17 298,-61 414,-61 326,0 522,72 684,-43 149,-106 128,-117 128,-261 0,-120 -215,-118 -275,-132 -62,-14 -94,-30 -155,-48 -68,-20 -114,-13 -174,-29 -67,-18 -39,-44 -157,-46 -61,-1 -141,14 -196,-8 -39,-15 -73,-78 -106,-96 -41,-22 -869,-48 -969,-48 -499,0 -413,190 -592,237l106 -1163c42,-285 118,-299 312,-331 589,-98 573,-76 1191,-79 145,-1 155,-54 255,-67 112,-16 181,-3 296,-26 177,-35 274,-150 454,-189 94,-21 188,-32 267,-56 241,-71 113,-70 387,-70 76,0 236,136 338,136 239,0 339,30 339,-288 0,-32 -91,-148 -114,-174 -52,-56 -286,-197 -365,-245 -115,-70 -108,-16 -248,-56 -484,-143 -514,-70 -780,-134 -80,-19 -161,-51 -254,-51 -521,0 -979,33 -1507,33 -102,0 -202,-68 -282,-107 -326,-159 -368,-84 -597,-9 -61,20 -71,21 -127,59 -210,139 -323,238 -332,616 -10,462 -53,262 191,538 135,153 96,117 81,445 -5,116 -51,97 -51,152z"/>
   <path class="fil2" d="M352 2540c51,-12 65,-26 101,-51 61,43 119,27 119,68 0,110 -175,152 -220,-17zm1337 -1422c0,201 105,-88 -58,483 -34,119 -65,220 -100,340 -145,497 -87,555 -165,936 -17,81 -16,228 -50,390 -64,299 -10,277 -84,576 -30,123 -43,254 -62,378 -24,152 -82,222 -103,338 -13,73 -14,121 -26,194l-85 355c-82,513 -126,717 -367,1174 -28,54 -61,77 -68,153 -29,342 -152,362 -152,507 0,231 44,240 -49,477 -58,147 -7,315 68,418 35,47 124,257 -2,257 -144,0 -147,16 -202,-121 -76,-193 -74,-376 -43,-598 41,-290 75,-529 75,-856 127,-85 136,-172 136,-356 0,-236 -91,-252 18,-439 76,-132 134,-519 160,-686 53,-334 89,-140 25,-451 -14,-71 -8,-92 1,-183 12,-125 50,-260 64,-377 15,-122 9,-275 29,-394 20,-127 58,-252 58,-382 0,-198 -35,-154 23,-349 84,-283 112,-431 112,-701 0,-133 34,-264 48,-377 8,-71 -105,-602 -110,-693 -7,-111 45,-338 208,-393 396,-133 284,160 696,-49 319,-163 496,-30 664,-81 245,-74 353,-9 613,84 173,62 344,206 453,343 105,131 108,193 202,340 54,85 61,65 81,190 20,126 26,103 79,192 131,223 81,538 83,596 3,61 31,71 31,153 0,227 -43,529 -99,697 -19,59 -41,82 -63,139 -82,207 -25,237 -228,382 -100,72 -31,95 -164,226 -174,172 -65,74 -242,164 -136,69 -61,82 -304,103 -572,47 -275,20 -745,-18 -71,-6 -271,-99 -271,-169 0,-253 29,-215 396,-108 209,60 497,49 710,11 174,-31 184,-151 265,-310 28,-55 79,-119 117,-171 62,-86 36,-99 76,-194 37,-88 74,-82 98,-191 113,-530 4,-656 -3,-815 -8,-198 13,-133 -55,-283l-171 -337c-16,-34 -40,-115 -53,-133 -67,-96 -42,56 -148,-191 -35,-83 -45,-64 -199,-140 -306,-151 -678,-118 -1033,-118 -35,0 -85,49 -85,68zm339 -644c-50,0 -263,38 -303,53 -51,17 -218,117 -256,117 -164,0 -160,-134 -519,-28 -80,24 -225,153 -254,271 -81,332 -20,275 11,569l57 324c5,93 -37,222 -40,336 -5,144 15,271 -34,373 -98,-66 -184,-195 -382,-61 -212,144 75,349 111,349 124,0 116,2 220,-68 -2,131 -67,198 -67,339 0,178 25,181 -10,363 -28,144 -39,196 -40,366 -2,137 -81,514 -101,713 -15,153 65,179 26,328 -30,119 -39,226 -63,345 -18,93 -78,414 -120,489 -132,235 -31,291 -31,545 0,182 -110,238 -127,280 -2,6 -25,356 -25,381 -1,127 -32,251 -46,360 -33,252 -87,677 76,896 95,127 119,98 325,98 21,0 136,-57 136,-169 0,-292 -105,-211 -142,-435 -32,-195 74,-104 74,-530 0,-96 -43,-108 73,-333 118,-230 17,-224 92,-349 222,-371 267,-556 364,-974 27,-119 33,-263 69,-387 37,-127 58,-231 76,-365 22,-163 78,-218 103,-354 25,-132 31,-249 60,-381 83,-375 35,-364 87,-590 41,-174 31,-286 50,-390 13,-70 34,-137 40,-197 36,-347 26,-402 131,-766 92,-317 193,-530 193,-824 274,0 577,-21 832,82 345,141 146,115 306,270 101,98 233,405 307,556 52,107 13,150 32,274 11,77 47,141 48,241l-21 268c-5,52 -31,190 -54,233 -51,92 -63,69 -96,193 -39,153 -116,157 -205,370 -31,76 -64,135 -134,155 -421,118 -820,-85 -914,-85l-152 0c-41,0 -136,94 -136,136l0 220c0,82 204,199 283,225 68,24 152,4 233,21 343,74 285,40 670,8 70,-6 133,-6 189,-31l281 -159c40,-38 69,-71 110,-111 192,-191 61,-129 201,-239 188,-148 176,-290 229,-414 27,-62 45,-80 67,-154 89,-311 120,-845 65,-1186 -19,-119 -45,-263 -95,-345 -129,-210 -33,-190 -119,-322 -57,-87 -112,-181 -161,-279 -135,-271 -455,-471 -731,-572 -358,-132 -397,-70 -591,-30 -70,14 -164,-19 -258,-19z"/>
   <path class="fil2" d="M39041 3878c0,-84 37,-171 57,-248 38,-148 80,-499 154,-795 20,-82 53,-156 77,-227 69,-197 -74,-424 576,-424 74,0 214,88 259,131 50,48 52,52 85,117 153,305 33,175 96,311 84,183 85,92 173,437 51,200 176,623 122,822 -58,213 5,234 -29,343 -109,343 10,273 19,550 2,64 -31,127 -32,202 -4,209 84,212 -120,488 -290,392 -161,427 -634,636 -131,58 -110,126 -258,149 -457,71 -356,207 -499,204 -60,-1 -44,-9 -103,5 -204,51 -174,99 -265,160 0,-139 18,-207 17,-339 -1,-129 33,-187 58,-298 23,-102 43,-196 44,-311 2,-258 104,-150 101,-610 -1,-248 19,-146 58,-298 26,-101 -12,-95 37,-318 14,-64 -2,-123 8,-178 18,-96 67,-37 67,-137 0,-126 -68,-263 -68,-372zm2404 -221c0,295 -29,216 -48,392 -10,99 -11,215 -28,310 -16,86 -61,206 -58,279 5,189 79,395 20,598 -104,352 50,229 -117,560 -174,345 -66,201 -341,658 -45,75 -82,135 -127,212 -107,184 -492,433 -708,478 -423,88 -570,23 -776,35 -198,11 -366,103 -514,-63 -61,-67 -37,-142 12,-218 20,-30 41,-50 68,-84 51,-68 110,-94 193,-112 55,-11 53,4 122,20 141,-95 84,-104 275,-182 211,-85 241,-9 347,-110 127,-119 280,-120 440,-254 103,-87 225,-289 296,-399l185 -272c146,-347 -11,-133 68,-560 16,-89 -40,-261 -59,-369 -29,-159 78,-111 43,-365 -29,-219 152,-70 -78,-987 -64,-254 -65,-311 -184,-510 -61,-103 27,-227 -220,-475 -54,-54 -61,-70 -131,-106 -157,-81 -126,-67 -305,-67 -121,0 -332,38 -416,75 -163,71 -159,315 -217,477 -139,387 -156,783 -215,987 -29,98 -67,212 -53,308 18,122 46,228 71,337l-98 88c11,56 31,54 31,115 0,94 -33,94 -35,203 -6,345 -67,202 -68,406 0,79 4,160 2,239 -4,147 -87,250 -101,373 -24,205 5,177 -59,432 -83,332 -24,177 -56,418 -23,166 -18,614 43,743 11,23 42,56 50,69 33,53 14,317 -132,317 -165,0 -254,-45 -304,-254 -82,-341 -45,-431 -38,-678l-14 -338c0,-117 23,-202 40,-316 14,-98 17,-224 35,-337l108 -620c29,-217 1,-489 32,-696 18,-114 43,-202 16,-292 -128,-434 55,-798 58,-938 3,-159 8,-190 35,-321 50,-251 77,-293 12,-524 -30,-105 20,-107 -5,-179l-89 -132c-57,-138 -58,-235 -39,-369 29,-195 219,-199 385,-276 55,-26 91,-48 146,-74 79,-37 260,-90 350,-90 99,0 129,-10 205,-16 152,-14 399,76 561,96 106,14 132,-8 250,73 83,56 27,79 116,104 225,63 31,-33 276,164 167,135 126,107 234,324 60,121 95,152 136,305 43,163 63,110 129,311 138,420 124,241 180,700l63 377zm-3166 -1862l55 284c19,44 19,30 47,71 60,83 20,86 38,200 40,251 87,19 -9,490 -61,307 9,229 -65,460 -142,440 -12,879 -19,945 -3,29 -22,133 -25,162 -26,203 3,497 -31,680l-48 308c-16,108 -44,209 -57,299 -79,570 -72,722 -72,1316 0,228 26,510 173,656 129,129 142,106 352,106 180,0 220,-265 220,-440 175,0 206,5 384,-23 101,-16 354,35 824,-40 268,-42 447,-198 643,-355 167,-135 298,-393 413,-587 84,-142 308,-594 311,-704 1,-84 -10,-170 9,-245 87,-347 61,-90 40,-552 -8,-174 -50,-99 4,-318l98 -681c0,-360 7,-161 -44,-447 -55,-307 20,-278 -147,-700 -29,-71 -44,-126 -69,-202 -32,-95 -66,-115 -94,-194 -56,-156 -15,-130 -113,-293 -23,-38 -33,-60 -52,-100 -180,-363 -171,-226 -383,-447 -149,-157 -58,23 -262,-161 -124,-113 -213,-89 -317,-107 -113,-20 -385,-92 -466,-92 -719,0 -567,88 -1027,243 -105,36 -92,18 -163,91 -113,115 -148,110 -148,377z"/>
   <path class="fil1" d="M12238 999c-155,0 -158,-26 -319,3 -122,22 -305,7 -496,28l-811 20c-254,0 -448,-34 -694,-34 -238,0 -584,35 -790,141 -219,112 -241,71 -357,219 -9,12 -43,58 -49,69 -44,82 -48,232 -22,332 19,73 23,46 78,91l182 140c63,42 135,99 198,124 301,117 639,77 936,-9 112,-33 299,-135 393,-200 100,-68 32,-94 165,-122 335,-70 444,-130 688,-193 152,-39 319,-57 481,-94 355,-82 293,-16 550,-43 165,-18 328,-60 510,-66 580,-18 351,-75 1000,16 172,25 372,96 372,-49 0,-89 -46,-127 -112,-159 -68,-33 -115,-56 -182,-90 -192,-98 -191,-38 -471,-70 -164,-19 -333,-43 -490,-54 -105,-7 -121,30 -245,11 -67,-11 -196,-45 -244,-45 -103,0 -169,34 -271,34z"/>
   <path class="fil2" d="M4432 3420c0,-67 35,-84 51,-152l102 0c17,37 32,97 34,152 -79,21 -74,77 -170,85 -9,-38 -17,-39 -17,-85zm85 1660c0,-76 32,-136 32,-203 0,-140 -117,-452 -104,-530 9,-50 33,-116 49,-170 23,-76 12,-132 30,-191 30,-98 60,-13 62,-158 4,-327 130,-223 204,-473 67,-226 141,-393 316,-565 78,-78 75,-123 132,-206 32,-47 6,-28 57,-45 106,-38 74,11 171,-66 231,-184 224,-103 413,-247 334,-256 88,73 496,-385 77,-86 121,-159 240,-199 42,-14 103,4 170,18 161,35 284,178 378,282 83,92 128,407 57,524 -81,134 -372,326 -535,329 -321,6 -240,-31 -427,217 -148,196 -160,314 -230,429 -27,44 -56,77 -86,117 -138,183 -121,225 -209,452 -51,134 -37,337 -88,555 -44,189 -74,219 -28,328 32,79 104,243 117,324 21,134 12,271 71,353 63,87 143,139 190,249 198,461 113,333 261,383 69,23 50,59 130,90 277,104 476,46 753,-46 291,-96 194,-137 307,-167 0,-155 17,-249 17,-390 45,-24 74,-44 119,-67 0,-86 -17,-93 -17,-187 0,-234 50,-142 89,-418 22,-156 85,-235 71,-317 -10,-58 -31,-131 -37,-184 -9,-69 -8,-134 -19,-184 -21,-95 -75,-201 -152,-255 -125,-88 -106,-110 -178,-245 -135,-254 -214,-166 -180,-394 28,-191 51,-270 175,-333 66,-34 78,-23 180,-23l435 242c107,65 59,146 187,270 114,111 84,82 121,252 33,155 147,402 233,529 66,97 45,169 66,306 55,357 88,154 25,534 -13,75 -22,140 -36,218 -21,115 -233,621 -280,719 -75,157 -400,593 -555,699 -214,145 -656,277 -958,277 -158,0 -339,-31 -481,-60 -222,-45 -194,-24 -396,-146 -117,-71 -227,-132 -341,-201 -54,-32 -116,-66 -170,-101l-276 -249c-59,-59 -327,-363 -359,-437 -95,-220 -212,-553 -212,-854zm1659 -3268c0,-22 27,-86 34,-119 40,19 62,15 102,34 0,72 4,159 -119,169 -5,-67 -17,-40 -17,-84zm220 -169c-200,-134 -338,-72 -338,186 0,73 19,92 34,152 -170,14 -257,151 -526,270 -73,33 -46,10 -106,64 -20,19 -74,64 -94,75 -120,60 -137,-44 -283,208 -118,203 -361,396 -380,619 -106,-71 -2,-68 -237,-68 -117,0 -217,310 -108,430 39,43 50,45 125,45 -36,75 -3,118 -18,201 -17,90 -57,28 -67,171 -19,274 -141,233 -48,540 151,504 -88,706 266,1461 67,144 394,465 531,586 50,43 86,94 136,134l704 414c140,67 626,116 799,116 258,0 685,-109 843,-206 223,-137 74,-9 295,-230 406,-405 474,-639 681,-1148 70,-172 128,-495 128,-685l-77 -516c-30,-203 -215,-308 -288,-710 -34,-181 -52,-134 -148,-242 -67,-77 -80,-185 -151,-256l-504 -291c-231,0 -218,-26 -366,75 -143,98 -176,371 -176,552 0,36 138,196 166,240 122,184 26,152 257,352 40,34 56,69 80,124 42,96 85,392 45,509 -48,139 -24,181 -76,331 -97,279 -26,147 -48,358 -10,93 -41,63 -82,121 -40,59 -37,284 -37,386 -246,164 -756,300 -953,123 -153,-139 -87,46 -182,-174 -24,-57 -46,-107 -70,-167 -52,-130 -113,-161 -192,-265 -80,-104 -46,-223 -83,-390 -72,-325 -170,-155 -85,-522 65,-276 24,-364 102,-592 35,-101 84,-262 137,-338 72,-103 130,-148 182,-275 42,-103 103,-230 164,-310 126,-167 100,-190 268,-189 238,0 141,14 300,-55 216,-94 157,-72 331,-245 139,-138 166,-258 110,-508 -42,-190 -29,-180 -211,-364 -66,-66 -130,-114 -211,-162 -58,-35 -230,-71 -319,-71 -31,0 -169,59 -220,136z"/>
   <path class="fil2" d="M16471 3505c0,-238 24,-119 34,-237l118 0c4,45 19,103 34,135 -59,40 -97,95 -186,102zm1151 1287c0,62 64,200 85,254 165,411 -34,352 216,630 104,116 108,152 181,328 137,329 86,87 259,249 66,61 15,32 115,54 381,83 359,33 696,-65 47,-14 90,-19 130,-39 19,-9 165,-118 177,-162 12,-43 4,-288 4,-352 48,-25 74,-38 118,-67 0,-268 -25,-240 51,-457 24,-68 23,-133 38,-216 8,-44 64,-171 64,-191 0,-90 -23,-117 -32,-189 -9,-80 -13,-126 -19,-201 -21,-261 -207,-282 -266,-394 -29,-53 -45,-98 -73,-147 -27,-47 -56,-81 -92,-128 -89,-120 -148,-162 -41,-446 59,-160 155,-171 286,-171 72,0 221,118 287,152 138,71 196,89 249,192 146,282 130,126 192,248 22,44 25,118 41,179 75,304 267,572 274,606l80 558c-41,316 -56,419 -170,711 -101,259 -197,513 -374,727 -37,45 -63,75 -100,120 -291,347 -390,380 -821,500 -312,86 -595,49 -899,-10 -302,-58 -496,-212 -752,-365 -218,-130 -146,-76 -323,-253 -98,-98 -186,-179 -273,-286 -42,-53 -88,-99 -131,-157 -45,-60 -142,-312 -162,-396 -17,-66 -51,-164 -60,-228 -13,-87 -28,-187 -35,-255 -18,-176 76,-55 -5,-501 -11,-60 -66,-191 -66,-239 0,-74 54,-185 63,-258 7,-48 -2,-100 14,-139 28,-68 48,-9 59,-110 16,-156 -37,-164 125,-366 156,-194 38,-194 260,-553 77,-124 126,-109 248,-328 105,-189 88,-25 250,-156 221,-179 277,-134 406,-237 329,-264 98,65 543,-439 83,-93 150,-189 297,-154 38,9 98,18 138,33 104,38 302,210 345,298 54,108 112,400 17,518 -121,152 -205,186 -378,266 -327,152 -343,-244 -745,559l-118 203c-61,85 -97,119 -130,209 -61,169 -128,290 -142,501 -5,84 -19,204 -37,285 -8,35 -64,251 -64,275zm593 -2980c0,-59 12,-66 17,-119 63,31 118,-6 118,68 0,72 -17,112 -118,135 -9,-37 -17,-38 -17,-84zm203 -186c-103,-70 -322,-107 -322,135 0,121 -11,118 34,203 -81,39 -148,49 -220,101 -269,197 -281,141 -416,245 -255,194 -225,50 -315,176 -84,116 -78,170 -204,304 -74,78 -82,82 -137,184l-113 226c-92,-61 -6,-51 -237,-51 -129,0 -192,362 -91,447 46,39 33,28 108,28 -35,72 -8,116 -17,203 -12,118 -54,32 -68,152 -11,100 0,100 -28,192 -115,379 78,496 58,718 -5,58 -30,108 -30,191 0,179 73,540 135,694 27,67 55,144 83,206 31,71 64,99 111,159 26,34 39,43 63,73l486 496 527 319c168,87 173,112 402,157 523,101 734,86 1235,-61 381,-113 619,-442 848,-744 114,-151 362,-768 389,-931l73 -470c0,-92 -54,-232 -66,-324 -64,-507 -13,-166 -152,-457l-159 -451c-34,-179 -37,-131 -145,-245 -199,-212 64,-133 -415,-397 -275,-151 -113,-141 -469,-141 -45,0 -186,100 -232,191 -71,141 -73,288 -73,453 0,33 106,156 131,190 59,78 80,132 123,216 120,235 243,72 287,543 7,82 12,85 22,147 12,81 -33,65 -58,255 -47,362 -81,28 -81,596 -251,67 0,369 -200,511 -49,35 -488,164 -541,161 -284,-15 -314,-91 -367,-123 -143,-88 -45,82 -207,-267 -96,-206 -7,-67 -136,-220 -104,-121 -113,-113 -124,-231 -61,-617 -216,-343 -112,-790 21,-89 21,-138 35,-236 11,-84 11,-153 27,-227 18,-80 43,-129 69,-202 85,-235 38,-147 177,-347 160,-229 154,-327 283,-496 145,-192 99,-173 351,-174 104,0 313,-82 385,-140 44,-36 238,-227 254,-271 62,-174 29,-373 -27,-541 -27,-81 -112,-148 -169,-220 -103,-130 -345,-234 -528,-234 -87,0 -181,81 -237,119z"/>
   <path class="fil2" d="M11172 5604c7,82 17,131 16,238 -1,104 15,131 18,219l-35 1203c0,184 96,578 -85,626 -23,-100 -39,-118 -22,-225 56,-356 -3,-297 -22,-408 -10,-60 11,-65 11,-145 0,-101 -23,-118 -44,-211 -56,-248 3,-424 -28,-649 -9,-62 -30,-122 -31,-207 -1,-212 -69,-883 -43,-1060 21,-133 10,-289 10,-430 0,-169 -17,-271 -17,-440 0,-147 0,-294 0,-441 0,-163 34,-155 34,-271 0,-210 20,-319 -58,-517 -34,-88 -46,-135 -70,-235 -62,-250 -126,-180 -126,-551 0,-95 144,-265 217,-292 173,-63 317,21 442,141 2,2 6,6 8,8 83,84 237,267 167,383 -85,141 -63,399 -99,647 -24,171 6,322 -38,470 -42,137 -33,50 1,181 19,75 -34,86 -60,166 -36,109 -19,328 -44,448 -46,220 -63,435 -49,673 10,162 -75,426 -53,679zm1066 -4605c102,0 168,-34 271,-34 48,0 177,34 244,45 124,19 140,-18 245,-11 157,11 326,35 490,54 280,32 279,-28 471,70 67,34 114,57 182,90 66,32 112,70 112,159 0,145 -200,74 -372,49 -649,-91 -420,-34 -1000,-16 -182,6 -345,48 -510,66 -257,27 -195,-39 -550,43 -162,37 -329,55 -481,94 -244,63 -353,123 -688,193 -133,28 -65,54 -165,122 -94,65 -281,167 -393,200 -297,86 -635,126 -936,9 -63,-25 -135,-82 -198,-124l-182 -140c-55,-45 -59,-18 -78,-91 -26,-100 -22,-250 22,-332 6,-11 40,-57 49,-69 116,-148 138,-107 357,-219 206,-106 552,-141 790,-141 246,0 440,34 694,34l811 -20c191,-21 374,-6 496,-28 161,-29 164,-3 319,-3zm-186 -135c-119,0 -175,25 -272,33 -102,8 -218,-7 -320,1l-797 33c-489,0 -1169,-131 -1641,137 -80,45 -309,86 -424,338 -41,89 -40,287 -21,393 22,126 58,100 169,203 46,44 46,48 102,84 367,243 354,234 799,234 185,0 370,-40 511,-83 93,-28 130,-50 208,-96 70,-42 128,-73 196,-109 0,461 8,305 104,590 29,87 40,187 77,279 146,367 39,512 39,689l17 1117c0,165 -17,261 -17,423 0,170 17,272 17,441l40 620c68,407 -29,510 73,842 38,123 5,67 5,214 0,119 59,121 50,234 -4,39 -104,528 103,528 160,0 238,-106 237,-270 -1,-148 4,-308 -13,-429 -13,-95 -10,-334 -4,-436 4,-78 17,-104 17,-202 0,-72 -3,-150 -1,-221 4,-148 21,-196 18,-424 -1,-94 -17,-108 -18,-202 -1,-76 5,-139 -7,-213 -25,-164 29,-437 52,-590 14,-87 -11,-126 -11,-213 0,-256 35,-350 64,-563 22,-161 0,-330 48,-426 43,-84 58,-62 58,-146 0,-83 -29,-85 -22,-143l32 -168c17,-119 9,-271 22,-384 17,-143 6,-378 60,-533 40,-115 115,-91 7,-344 -23,-54 -46,-89 -87,-133 -41,-46 -57,-81 -102,-119 -55,-47 -70,-42 -113,-106l661 -134c124,-27 244,-16 389,-18l711 -84c634,-51 913,84 1100,84 73,0 203,-90 203,-153 0,-296 -53,-274 -383,-446 -80,-41 -76,-46 -192,-45 -324,2 -560,-67 -881,-67 -65,0 -54,11 -100,10 -184,-4 -152,-83 -536,-19 -86,14 -134,-8 -227,-8z"/>
   <path class="fil2" d="M24751 1253c-167,0 -298,-4 -454,-38 -165,-35 -181,-80 -393,-80 -91,0 -487,158 -552,227 -38,41 21,2 -44,41 -71,42 -19,-15 -147,89 -170,139 -285,181 -397,415 -39,81 -181,392 -181,464 0,105 18,308 -2,386 -50,189 -94,412 -100,612 -2,80 -15,420 -6,447 85,251 575,129 802,129 139,0 425,64 548,114 116,48 115,-90 333,56l0 135c-212,57 86,85 -457,85 -242,0 -431,-20 -661,-18 -120,1 -198,37 -292,48 -132,17 -186,-65 -272,48 -83,109 49,97 -100,239 -31,31 -52,57 -86,84 -40,33 -74,46 -95,91 -56,122 68,1019 67,1268 -2,451 -25,564 36,997 42,297 0,379 99,596 130,284 145,353 32,641 -93,236 -233,126 -358,6 -154,-147 -307,-368 -274,-592 25,-171 158,-126 116,-402l-75 -991c1,-415 -25,-596 -119,-948 -29,-110 -7,-212 -17,-339 -9,-115 -51,-158 -50,-305 1,-222 -33,-430 -52,-659 -8,-95 -33,-221 -33,-323 0,-97 27,-207 32,-290l-66 -912c0,-169 31,-364 65,-495 91,-354 -44,-176 48,-443 27,-80 44,-121 61,-209 39,-196 51,-433 355,-492 107,-20 142,18 245,-26 74,-32 28,-12 107,-29 78,-16 26,7 89,-63 40,-44 99,-85 153,-117 37,-23 49,-31 83,-53 217,-139 226,-157 376,-335 83,-100 261,-193 433,-193 214,0 386,167 401,175 91,44 412,88 459,116 93,56 -22,53 186,102 67,16 41,7 80,56 212,264 140,80 249,191 202,204 -3,494 -172,494zm-3251 660c0,101 -85,289 -85,644 0,300 51,561 51,846 0,419 -41,217 14,731 26,249 42,465 53,726 6,130 53,171 52,338 -2,322 58,310 104,674 13,101 17,260 28,362 13,115 -1,266 2,387l69 710c23,360 -156,89 -100,608 25,232 237,438 406,576 99,80 64,70 235,70 82,0 160,-88 193,-147 119,-215 95,-323 95,-548 0,-90 -139,-251 -165,-461 -26,-210 -20,-300 -63,-581 -34,-223 9,-801 -40,-1230l-42 -585c-20,-138 -10,-135 77,-220 31,-30 146,-136 162,-160 72,-109 -60,-182 104,-169 125,10 196,-10 290,-30 113,-23 889,-1 1099,-1 16,0 237,-108 237,-186 0,-126 33,-251 -153,-321 -112,-42 -207,1 -271,-18l-248 -55c-259,-48 -139,-46 -428,-46 -192,0 -309,54 -481,7 -112,-31 -107,-52 -98,-144 24,-251 -29,-363 74,-774 129,-517 -72,-363 104,-709 205,-404 7,-247 437,-596 146,-119 113,-54 188,-117 133,-110 43,-41 194,-111 40,-19 60,-32 101,-51 294,-143 298,-53 552,2 195,42 354,38 554,38 84,0 161,-84 208,-132 114,-114 114,-100 114,-309 0,-127 -65,-234 -157,-300 -45,-33 -58,-21 -106,-46 -64,-34 -86,-109 -147,-158 -99,-80 -72,26 -203,-101 -76,-73 -323,-87 -473,-137 -162,-54 -105,-189 -590,-189 -280,0 -461,302 -572,394 -169,139 -323,201 -423,305 -99,103 -53,34 -173,80 -223,87 -416,-55 -630,335 -37,66 -65,303 -96,395 -118,348 -53,159 -53,404z"/>
   <path class="fil2" d="M29576 7433c-89,0 -115,-14 -193,-27 -63,-10 -127,-16 -181,-22 -326,-38 -230,-10 -489,-137 -47,-23 -92,-36 -142,-62l-502 -327c-74,-50 -175,-106 -232,-175 -259,-313 -360,-281 -423,-389 -68,-116 -89,-154 -191,-232 -109,-82 -108,-109 -165,-242 -142,-334 -168,-241 -241,-589 -25,-124 -18,-258 -18,-405l-17 -390c-13,-245 53,-518 106,-707 118,-425 184,-288 199,-630 6,-125 64,-403 130,-497 33,-46 56,-68 85,-118 33,-55 46,-86 101,-120 95,-58 295,-194 387,-221 115,-35 220,-54 335,-72 146,-24 190,-49 309,-97 215,-86 437,-144 579,-253 73,-56 44,-31 156,-28 128,4 487,20 551,60 161,100 55,95 273,150 174,44 305,320 376,437 69,115 101,156 105,301 -120,0 -135,0 -164,57 -13,25 -37,131 -40,164 -226,18 -159,143 -375,3 -173,-113 -232,-35 -375,-82 -243,-82 -252,-218 -640,-93 -438,142 -713,98 -979,562 -236,409 -357,902 -357,1387 0,220 38,289 50,459 6,87 10,150 16,221 23,252 221,555 388,747 64,73 266,324 328,365 113,76 320,228 438,240 439,44 350,66 788,-57 116,-33 225,-75 332,-109 121,-40 124,-70 247,-193 72,-73 122,-168 183,-257 67,-97 132,-164 205,-253 75,-90 108,-128 278,-162 197,-40 87,-17 228,-212 111,-155 221,-79 295,-77 0,403 -39,166 -89,520 -16,118 -88,229 -129,329 -97,241 -184,372 -320,576 -150,226 -130,141 -219,239 -86,93 -75,145 -224,233 -194,116 -516,185 -763,185zm839 -4664c185,-47 206,-78 158,-294 -16,-71 -120,-235 -164,-311 -237,-406 -415,-354 -526,-439 -147,-112 -133,-113 -359,-131 -137,-11 -312,-29 -442,-31 -95,-2 -192,114 -310,155 -125,44 -228,81 -346,129 -148,59 -207,85 -377,113 -396,65 -365,90 -682,285 -148,91 -127,126 -222,251 -202,266 -151,662 -198,767 -112,252 -192,405 -241,707 -80,484 -25,467 -25,907 0,396 10,476 169,795 53,105 102,232 158,333 69,125 162,146 234,241 107,141 51,153 221,253 117,68 179,133 251,223 150,190 920,672 1186,745 140,38 724,99 872,77 759,-111 698,-283 942,-496 229,-200 411,-629 544,-896 125,-251 71,-254 110,-382 51,-168 90,-189 70,-402 -17,-182 -365,-271 -552,56 -86,149 -78,50 -321,169 -184,90 -483,664 -667,774 -75,44 -656,215 -746,219 -55,2 -385,-35 -423,-50 -243,-93 -399,-277 -536,-429 -248,-272 -466,-559 -479,-959 -6,-159 -44,-293 -51,-440 -24,-484 196,-1503 665,-1723 125,-58 231,-86 370,-121 80,-20 315,-98 371,-102 152,-9 256,60 371,117 133,65 258,6 388,87 150,92 159,111 354,45 189,-64 183,-41 233,-242z"/>
   <path class="fil1" d="M10680 2100c0,371 64,301 126,551 24,100 36,147 70,235 78,198 58,307 58,517 0,116 -34,108 -34,271 0,147 0,294 0,441 0,169 17,271 17,440 0,141 11,297 -10,430 -26,177 42,848 43,1060 1,85 22,145 31,207 31,225 -28,401 28,649 21,93 44,110 44,211 0,80 -21,85 -11,145 19,111 78,52 22,408 -17,107 -1,125 22,225 181,-48 85,-442 85,-626l35 -1203c-3,-88 -19,-115 -18,-219 1,-107 -9,-156 -16,-238 -22,-253 63,-517 53,-679 -14,-238 3,-453 49,-673 25,-120 8,-339 44,-448 26,-80 79,-91 60,-166 -34,-131 -43,-44 -1,-181 44,-148 14,-299 38,-470 36,-248 14,-506 99,-647 70,-116 -84,-299 -167,-383 -2,-2 -6,-6 -8,-8 -125,-120 -269,-204 -442,-141 -73,27 -217,197 -217,292z"/>
   <path class="fil2" d="M40006 2895c22,82 29,20 51,102 -100,67 -145,51 -288,51 -43,-81 -51,-57 -68,-119l305 -34zm-423 17c0,95 -9,81 65,173 86,107 84,81 307,81 136,0 221,-112 221,-152 0,-73 3,-111 -88,-201 -55,-54 -82,-41 -173,-27 -92,15 -332,-9 -332,126z"/>
   <path class="fil2" d="M37280 3505c42,-63 45,-38 119,-102 47,25 76,37 135,51l0 34c-70,19 -90,96 -254,17zm-118 -34c0,300 491,189 491,34 0,-75 11,-116 -85,-169 -283,-155 -406,124 -406,135z"/>
   <path class="fil2" d="M10054 305c21,-40 39,-69 50,-119 38,18 67,30 119,34 0,154 -61,246 -169,85zm-119 -17c0,153 162,220 169,220l85 0c59,0 152,-118 152,-186 0,-101 31,-254 -253,-254 -66,0 -153,149 -153,220z"/>
   <path class="fil1" d="M39701 2929c17,62 25,38 68,119 143,0 188,16 288,-51 -22,-82 -29,-20 -51,-102l-305 34z"/>
   <path class="fil1" d="M32963 3420c0,46 8,47 16,85 96,-8 91,-64 170,-85 -1,-55 -16,-115 -34,-152l-102 0c-16,68 -50,85 -50,152z"/>
   <path class="fil1" d="M4432 3420c0,46 8,47 17,85 96,-8 91,-64 170,-85 -2,-55 -17,-115 -34,-152l-102 0c-16,68 -51,85 -51,152z"/>
   <path class="fil1" d="M16471 3505c89,-7 127,-62 186,-102 -15,-32 -30,-90 -34,-135l-118 0c-10,118 -34,-1 -34,237z"/>
   <path class="fil1" d="M352 2540c45,169 220,127 220,17 0,-41 -58,-25 -119,-68 -36,25 -50,39 -101,51z"/>
   <path class="fil1" d="M10054 305c108,161 169,69 169,-85 -52,-4 -81,-16 -119,-34 -11,50 -29,79 -50,119z"/>
   <path class="fil1" d="M18215 1812c0,46 8,47 17,84 101,-23 118,-63 118,-135 0,-74 -55,-37 -118,-68 -5,53 -17,60 -17,119z"/>
   <path class="fil1" d="M37280 3505c164,79 184,2 254,-17l0 -34c-59,-14 -88,-26 -135,-51 -74,64 -77,39 -119,102z"/>
   <path class="fil1" d="M34707 1812c0,44 11,17 16,84 123,-10 119,-97 119,-169 -40,-19 -62,-15 -102,-34 -7,33 -33,97 -33,119z"/>
   <path class="fil1" d="M6176 1812c0,44 12,17 17,84 123,-10 119,-97 119,-169 -40,-19 -62,-15 -102,-34 -7,33 -34,97 -34,119z"/>
   <path class="fil1" d="M43139 7095l0 118 118 0c20,-83 41,-58 -34,-169 -49,33 -22,34 -84,51z"/>
   <path class="fil3" d="M25105 6282l-173 -415c-44,-124 -34,-97 -71,-125 23,67 33,82 54,141 33,97 104,274 159,360l31 39z"/>
   <path class="fil4" d="M25979 1851c209,-130 -17,-67 -108,-408 -18,-68 -21,-56 -44,-73 27,94 32,147 83,231 38,62 116,133 133,177 -61,43 -33,2 -64,73z"/>
   <path class="fil4" d="M24893 3383c30,-21 16,19 69,-107 61,-144 85,-226 168,-364 -62,32 -47,33 -81,99 -25,50 -31,64 -50,119 -34,100 -70,157 -106,253z"/>
   <path class="fil5" d="M25882 7281c-61,-71 -109,-110 -167,-169 -39,-40 -29,-44 -68,-85 -27,-28 -48,-49 -86,-82l142 180c55,56 108,124 179,156z"/>
   <path class="fil6" d="M26645 7849c-33,-58 -78,-68 -139,-106 -55,-34 -93,-61 -146,-90 28,66 224,159 285,196z"/>
   <path class="fil7" d="M26061 763c51,-3 87,-41 127,-69 23,-16 28,-20 48,-37 1,0 26,-22 28,-23 18,-18 12,-13 27,-32 -46,20 -83,50 -119,74 -18,11 -33,24 -49,35l-62 52z"/>
   <path class="fil8" d="M25198 2757c56,-32 38,-25 98,-112l82 -135c-54,44 -151,192 -180,247z"/>
   <path class="fil9" d="M25325 6639c-14,-61 -40,-71 -75,-128 -15,-24 -21,-41 -37,-63 -35,-49 -19,-25 -48,-46 17,46 44,82 69,124l91 113z"/>
   <path class="fil10" d="M26086 7452c-48,-56 -60,-54 -108,-95 -36,-31 -49,-51 -93,-85 32,65 78,103 136,143l65 37z"/>
   <path class="fil11" d="M27034 8029l-217 -114c25,35 -6,14 50,47 7,4 32,15 45,21 45,22 69,43 122,46z"/>
   <path class="fil12" d="M25932 946c4,-4 9,-17 11,-14l109 -139c-71,32 -28,-3 -75,61 -35,47 -28,23 -45,92z"/>
   <path class="fil13" d="M25437 6773c-32,-43 -26,-29 -55,-73 -39,-62 -4,-38 -57,-61 33,66 44,104 112,134z"/>
   <path class="fil14" d="M25484 2353c64,-30 20,0 63,-51 35,-40 28,-27 50,-78 -67,51 -64,61 -113,129z"/>
   <path class="fil7" d="M25772 2034c64,-30 103,-71 131,-131l-131 131z"/>
   <path class="fil15" d="M26360 7653c-25,-43 -19,-26 -69,-59l14 43 55 16z"/>
   <path class="fil16" d="M26430 542l282 -113c4,-2 9,-6 14,-10l-284 112c-3,2 -8,7 -12,11z"/>
   <path class="fil17" d="M24703 5006c-8,-74 12,-59 -33,-88 7,25 1,19 11,44 11,29 14,30 22,44z"/>
   <path class="fil18" d="M25475 6827l-48 -49c-2,37 -14,32 15,32 0,36 -5,2 33,17z"/>
   <path class="fil19" d="M25413 2440l36 -10c36,-7 0,-1 14,-37l-50 47z"/>
   <path class="fil20" d="M25695 2125l48 -47c-36,1 -31,-10 -31,18 -35,0 -2,-4 -17,29z"/>
   <path class="fil19" d="M32151 6738l47 -65c-41,31 -18,-10 -47,65z"/>
  </g>
 </g>
</svg>
