<?xml version="1.0" encoding="UTF-8"?>
<!DOCTYPE svg PUBLIC "-//W3C//DTD SVG 1.1//EN" "http://www.w3.org/Graphics/SVG/1.1/DTD/svg11.dtd">
<!-- Creator: CorelDRAW X7 -->
<svg xmlns="http://www.w3.org/2000/svg" xml:space="preserve" width="232.325mm" height="84.0738mm" version="1.1" style="shape-rendering:geometricPrecision; text-rendering:geometricPrecision; image-rendering:optimizeQuality; fill-rule:evenodd; clip-rule:evenodd"
viewBox="0 0 23233 8407"
 xmlns:xlink="http://www.w3.org/1999/xlink">
 <defs>
  <style type="text/css">
   <![CDATA[
    .fil2 {fill:black}
    .fil15 {fill:#1C1C1C}
    .fil9 {fill:#1D1D1D}
    .fil16 {fill:#1E1E1E}
    .fil8 {fill:#202020}
    .fil6 {fill:#232323}
    .fil21 {fill:#242424}
    .fil7 {fill:#262626}
    .fil3 {fill:#282828}
    .fil18 {fill:#2A2A2A}
    .fil4 {fill:#2B2B2B}
    .fil11 {fill:#2C2C2C}
    .fil5 {fill:#2E2E2E}
    .fil20 {fill:#2F2F2F}
    .fil10 {fill:#303030}
    .fil12 {fill:#323232}
    .fil19 {fill:#333333}
    .fil13 {fill:#343434}
    .fil14 {fill:#353535}
    .fil17 {fill:#373737}
    .fil0 {fill:#545454}
    .fil1 {fill:#E67E22}
   ]]>
  </style>
 </defs>
 <g id="Слой_x0020_1">
  <metadata id="CorelCorpID_0Corel-Layer"/>
  <g id="_104294578960">
   <path class="fil0" d="M4189 1110c57,-12 426,24 508,31 199,17 247,16 414,128 127,85 240,88 357,201 93,89 184,180 252,290 320,519 231,526 49,714 -130,134 -57,179 -285,257 -189,65 -234,38 -397,-50 -141,-75 -297,-45 -449,-109 -157,-66 -222,-128 -410,-121 -138,6 -703,172 -838,235 -483,224 -671,948 -756,1428 -73,414 -26,596 9,994 31,360 70,524 273,828 92,137 385,492 507,594 265,221 439,277 782,300 219,14 661,-121 868,-210 248,-106 373,-354 525,-558 377,-508 391,-341 619,-482 108,-68 142,-194 272,-270 105,-62 302,-63 374,48 77,119 26,337 -15,463 -49,147 -51,278 -117,425 -248,546 -427,907 -871,1331 -423,406 -1227,338 -1763,243 -310,-55 -1184,-600 -1378,-807 -93,-99 -162,-186 -276,-265 -158,-111 -164,-104 -274,-268 -81,-121 -187,-182 -265,-294 -72,-103 -125,-245 -182,-360 -170,-344 -220,-485 -220,-880 0,-886 -75,-1023 284,-1866 112,-262 19,-567 221,-880 422,-656 1004,-579 1433,-751 134,-54 258,-101 394,-149 96,-34 325,-183 355,-190zm-2050 -740l-295 122 -173 77c-37,69 -123,125 -197,145l-9 29 -119 154c-109,97 -107,292 -106,424 49,50 66,154 106,226 35,63 113,129 135,186l-89 68 -75 53c-33,64 -66,97 -131,130l-29 45 -48 47 -98 99c-27,57 -57,97 -113,128l-21 40 -50 48 -35 70c-36,76 -111,202 -180,247l-68 155c-66,109 -178,419 -237,471 -5,73 -68,256 -90,343 -108,421 -169,748 -133,1191 37,38 28,31 33,88 22,248 139,523 158,737 72,65 87,185 123,274 38,93 93,165 120,265l61 121c49,38 142,177 160,237 47,28 77,88 112,133l-10 6 48 49 86 118 320 335 4 -9 200 181c66,46 127,121 205,142l70 59c69,35 248,138 284,196l173 66 217 114c331,138 646,232 999,298 249,47 1049,63 1298,29 1329,-180 2540,-962 3153,-2166 344,-677 470,-1485 315,-2230 -131,-632 -437,-1304 -893,-1770 -106,-108 -233,-219 -333,-327 -97,-104 101,-257 150,-426 298,-1036 -2000,-1301 -2621,-1301 -1117,0 -1303,15 -2377,283z"/>
   <path class="fil1" d="M10831 1644c-171,29 -361,369 -541,475 -114,67 -204,123 -315,192 -114,70 -578,293 -639,377 -79,110 -129,184 -216,292 -197,242 -189,462 -342,674 -127,177 -80,191 -132,376 -40,145 -68,260 -104,404 -74,298 109,304 55,831 -23,233 76,601 164,820 168,423 628,815 1011,1038 265,155 386,257 700,315 346,65 548,83 897,9 238,-51 534,-149 711,-321 417,-405 558,-745 756,-1276 98,-261 138,-571 85,-844 -25,-127 -29,-311 -85,-423 -66,-132 -115,-204 -174,-351 -49,-123 -80,-277 -126,-382 -37,-84 -149,-195 -209,-298 -78,-132 -489,-376 -643,-359 -268,29 -351,424 -200,626 84,110 126,206 198,310 74,109 167,140 234,274 56,115 64,293 85,422 40,243 -130,579 -146,802 -5,71 11,152 -9,218 -18,62 -69,99 -94,157 -96,223 153,407 -433,583 -329,99 -504,128 -820,-37 -333,-175 -216,-325 -429,-587 -249,-307 -84,-276 -267,-749 -110,-283 -5,-368 41,-830 26,-263 141,-528 291,-742 146,-208 206,-413 377,-639 163,-217 445,-81 738,-278 593,-398 -3,-1150 -419,-1079z"/>
   <path class="fil1" d="M1612 4201c0,610 -56,1023 195,1524 328,655 137,256 511,758 71,96 143,123 232,191 168,130 253,279 442,405 271,181 776,533 1082,611 139,35 620,96 763,96 231,0 635,-89 831,-215 123,-79 428,-425 514,-553 157,-234 257,-419 374,-676 66,-147 248,-690 220,-831 -32,-160 -192,-138 -286,-47 -110,108 -98,197 -268,257 -154,54 -223,50 -339,185 -83,96 -168,198 -240,302 -137,198 -290,433 -524,526 -211,84 -635,219 -853,219 -662,0 -905,-282 -1297,-749 -167,-200 -296,-403 -381,-651 -51,-149 -114,-741 -119,-914 -13,-498 152,-1203 416,-1629 161,-261 265,-365 555,-477 152,-59 669,-205 818,-205 241,0 296,98 488,153 91,25 185,21 278,43 215,51 335,313 614,-113 105,-161 255,-98 92,-389 -88,-156 -141,-262 -270,-391 -175,-175 -242,-135 -407,-253 -173,-123 -323,-119 -529,-132 -424,-25 -264,-17 -502,108 -184,96 -766,294 -974,330 -290,49 -682,216 -856,464 -117,166 -158,255 -206,455 -50,214 1,335 -103,557 -137,294 -271,716 -271,1041z"/>
   <path class="fil1" d="M14213 5906c-68,381 -206,1801 59,2067 110,112 304,101 347,-70 47,-189 -250,-569 -18,-1541 42,-172 31,-345 81,-512 68,-234 66,-271 80,-513l136 -918c30,-132 -46,-307 -20,-490 63,-444 220,-1010 327,-1433 41,-165 97,-269 268,-325 321,-104 639,-85 863,182 124,147 125,221 183,393 50,151 114,270 161,431 157,544 208,897 106,1474 -33,189 89,533 16,971 -25,150 -329,600 -435,727 -108,129 -178,191 -331,262 -122,58 -278,169 -388,205 -185,59 -254,46 -428,165 -150,104 -250,58 -376,131 -100,59 -229,215 -175,339 65,148 297,129 426,116 370,-36 664,33 1051,-83 554,-165 890,-752 1106,-1248 67,-155 143,-258 161,-432 16,-152 55,-374 58,-514 3,-171 -46,-346 -28,-516 17,-157 53,-326 72,-493 21,-188 69,-333 47,-529 -18,-167 -53,-347 -75,-518 -40,-306 -190,-585 -298,-870 -112,-294 -200,-531 -445,-740 -132,-112 -234,-136 -365,-228 -159,-111 -255,-103 -438,-137 -375,-70 -640,-114 -1013,29 -324,125 -642,208 -626,542 6,118 117,313 148,446 89,382 10,656 -40,1033 -22,166 -75,307 -92,485 -19,203 10,329 30,525 17,164 -21,353 -33,521 -26,383 -33,681 -102,1066z"/>
   <path class="fil1" d="M22260 1847c174,-31 344,-15 505,54 92,39 369,113 328,-84 -26,-122 -205,-218 -304,-278 -159,-96 -265,-96 -434,-142l-1014 -171c-333,-27 -788,12 -1131,26 -804,33 -687,-139 -1000,-171 -134,-14 -306,58 -424,120 -151,79 -207,161 -250,325 -236,892 389,447 230,1326 -43,242 -57,219 -42,481 8,141 -116,733 -89,927 47,331 -5,263 13,427 9,86 26,149 26,240 -2,408 84,822 231,1190 98,248 54,237 82,477 22,191 302,632 432,735 618,489 590,303 1278,484 394,103 687,16 1071,29 130,5 390,65 467,-59 105,-168 -143,-223 -252,-240l-1522 -256c-125,-34 -271,-125 -390,-185 -307,-154 -444,-262 -642,-544 -226,-324 -264,-408 -382,-787 -97,-313 -160,-689 -140,-1017 16,-273 114,-121 237,-83 120,38 304,-45 442,-63 238,-31 1362,-181 1559,-172 128,5 395,43 496,-42 157,-131 -174,-181 -242,-196 -167,-36 -320,-77 -490,-102 -183,-27 -260,-114 -468,-125 -263,-14 -879,-65 -1073,46 -96,54 -259,214 -366,204 -129,-14 -61,-326 -56,-422 10,-177 37,-349 52,-524 22,-263 10,-770 305,-881 259,-98 763,-124 1044,-124 270,1 782,-41 1034,-134 152,-55 251,-131 419,-174 132,-33 334,-92 460,-115z"/>
   <path class="fil2" d="M19375 7584c-22,-86 6,-140 88,-156 48,54 42,81 27,149l-115 7zm2885 -5737c-126,23 -328,82 -460,115 -168,43 -267,119 -419,174 -252,93 -764,135 -1034,134 -281,0 -785,26 -1044,124 -295,111 -283,618 -305,881 -15,175 -42,347 -52,524 -5,96 -73,408 56,422 107,10 270,-150 366,-204 194,-111 810,-60 1073,-46 208,11 285,98 468,125 170,25 323,66 490,102 68,15 399,65 242,196 -101,85 -368,47 -496,42 -197,-9 -1321,141 -1559,172 -138,18 -322,101 -442,63 -123,-38 -221,-190 -237,83 -20,328 43,704 140,1017 118,379 156,463 382,787 198,282 335,390 642,544 119,60 265,151 390,185l1522 256c109,17 357,72 252,240 -77,124 -337,64 -467,59 -384,-13 -677,74 -1071,-29 -688,-181 -660,5 -1278,-484 -130,-103 -410,-544 -432,-735 -28,-240 16,-229 -82,-477 -147,-368 -233,-782 -231,-1190 0,-91 -17,-154 -26,-240 -18,-164 34,-96 -13,-427 -27,-194 97,-786 89,-927 -15,-262 -1,-239 42,-481 159,-879 -466,-434 -230,-1326 43,-164 99,-246 250,-325 118,-62 290,-134 424,-120 313,32 196,204 1000,171 343,-14 798,-53 1131,-26l1014 171c169,46 275,46 434,142 99,60 278,156 304,278 41,197 -236,123 -328,84 -161,-69 -331,-85 -505,-54zm-3894 34c0,572 430,198 253,1031 -42,195 -21,250 -21,437 0,93 -110,682 -99,821l49 758c8,104 -11,199 9,317 61,359 16,269 140,606l156 571c12,117 4,220 40,334 81,258 355,515 366,681 6,92 -21,191 83,241 93,44 173,-12 266,-12 72,1 156,65 231,90 180,61 420,109 608,137 255,39 418,102 694,95 495,-12 412,-38 934,-2 253,17 391,-215 274,-419 -103,-178 -744,-200 -964,-239 -111,-20 -223,-50 -336,-71 -201,-36 -497,-54 -672,-140 -462,-230 -599,-277 -898,-710 -238,-345 -372,-768 -426,-1183 -11,-85 -34,-270 -19,-348 20,-109 136,-56 219,-63 102,-9 214,-59 325,-78l1070 -132c303,-42 447,-46 753,-33 173,7 506,-79 413,-330 -62,-165 -750,-227 -940,-279 -109,-30 -180,-87 -303,-103 -238,-30 -646,-30 -901,-30 -216,0 -316,28 -483,161 -188,151 -122,-176 -112,-282 21,-217 69,-967 176,-1110 200,-268 1318,-166 1687,-244 180,-38 362,-43 531,-112 184,-76 253,-135 465,-179 164,-33 367,-115 527,-108 192,8 313,122 512,126 208,3 311,-137 235,-334 -52,-133 -220,-234 -337,-306 -251,-155 -740,-221 -1032,-255 -393,-46 -312,-92 -815,-83 -342,6 -708,34 -1049,34 -391,0 -497,-186 -870,-186 -127,0 -464,168 -558,265 -146,152 -181,464 -181,666z"/>
   <path class="fil2" d="M14652 7087c-11,-32 4,-338 6,-397 5,-117 60,-240 82,-358 26,-140 5,-265 47,-394 42,-129 90,-227 91,-366 2,-156 -18,-252 39,-401 36,-94 63,-451 75,-584 5,-62 47,-62 55,-150 12,-134 -59,-259 -63,-389 -3,-87 61,-258 77,-358l144 -738c28,-118 86,-231 108,-348 22,-115 21,-239 146,-294 328,-144 751,-100 896,312 23,65 20,121 38,183 15,57 49,93 75,144 102,202 246,869 261,1077 8,103 -95,702 -87,781 12,112 71,265 58,368 -9,70 -29,117 -26,193 3,80 25,131 10,215 -26,158 -230,409 -321,560 -148,244 -242,293 -496,401 -113,49 -160,143 -276,164 -439,79 -315,108 -481,196 -74,39 -236,12 -345,96 -34,26 -69,90 -113,87zm-350 -5257c-16,-334 302,-417 626,-542 373,-143 638,-99 1013,-29 183,34 279,26 438,137 131,92 233,116 365,228 245,209 333,446 445,740 108,285 258,564 298,870 22,171 57,351 75,518 22,196 -26,341 -47,529 -19,167 -55,336 -72,493 -18,170 31,345 28,516 -3,140 -42,362 -58,514 -18,174 -94,277 -161,432 -216,496 -552,1083 -1106,1248 -387,116 -681,47 -1051,83 -129,13 -361,32 -426,-116 -54,-124 75,-280 175,-339 126,-73 226,-27 376,-131 174,-119 243,-106 428,-165 110,-36 266,-147 388,-205 153,-71 223,-133 331,-262 106,-127 410,-577 435,-727 73,-438 -49,-782 -16,-971 102,-577 51,-930 -106,-1474 -47,-161 -111,-280 -161,-431 -58,-172 -59,-246 -183,-393 -224,-267 -542,-286 -863,-182 -171,56 -227,160 -268,325 -107,423 -264,989 -327,1433 -26,183 50,358 20,490l-136 918c-14,242 -12,279 -80,513 -50,167 -39,340 -81,512 -232,972 65,1352 18,1541 -43,171 -237,182 -347,70 -265,-266 -127,-1686 -59,-2067 69,-385 76,-683 102,-1066 12,-168 50,-357 33,-521 -20,-196 -49,-322 -30,-525 17,-178 70,-319 92,-485 50,-377 129,-651 40,-1033 -31,-133 -142,-328 -148,-446zm1050 -745c-243,20 -338,8 -570,124 -141,71 -365,130 -467,227 -145,139 -149,354 -108,540 29,132 46,131 100,239 34,66 36,209 58,298 46,188 -51,395 -61,589 -21,400 -187,571 -81,1229 22,137 -32,484 -38,649 -18,431 -11,247 -54,641 -42,388 -140,839 -133,1255 5,317 -42,951 175,1196 110,123 397,162 502,24 62,-81 81,-156 84,-256 6,-174 32,-130 186,-135 108,-4 216,-31 321,-29 115,1 220,16 340,12 564,-15 1076,-217 1377,-705 88,-143 177,-287 264,-430 82,-134 147,-324 222,-473 107,-213 44,-349 109,-585 53,-190 -11,-426 -17,-622 -3,-109 34,-189 50,-293 16,-107 14,-214 32,-324 33,-209 76,-419 31,-634 -42,-203 -50,-406 -96,-597 -80,-333 -236,-591 -289,-761 -32,-103 -52,-156 -105,-251 -190,-337 -126,-292 -461,-571 -88,-73 -153,-69 -231,-126 -234,-170 -242,-124 -515,-179 -280,-56 -331,-76 -625,-52z"/>
   <path class="fil2" d="M8505 3598c-23,-81 -3,-186 75,-229l82 10 29 121c-42,52 -120,107 -186,98zm2326 -1954c416,-71 1012,681 419,1079 -293,197 -575,61 -738,278 -171,226 -231,431 -377,639 -150,214 -265,479 -291,742 -46,462 -151,547 -41,830 183,473 18,442 267,749 213,262 96,412 429,587 316,165 491,136 820,37 586,-176 337,-360 433,-583 25,-58 76,-95 94,-157 20,-66 4,-147 9,-218 16,-223 186,-559 146,-802 -21,-129 -29,-307 -85,-422 -67,-134 -160,-165 -234,-274 -72,-104 -114,-200 -198,-310 -151,-202 -68,-597 200,-626 154,-17 565,227 643,359 60,103 172,214 209,298 46,105 77,259 126,382 59,147 108,219 174,351 56,112 60,296 85,423 53,273 13,583 -85,844 -198,531 -339,871 -756,1276 -177,172 -473,270 -711,321 -349,74 -551,56 -897,-9 -314,-58 -435,-160 -700,-315 -383,-223 -843,-615 -1011,-1038 -88,-219 -187,-587 -164,-820 54,-527 -129,-533 -55,-831 36,-144 64,-259 104,-404 52,-185 5,-199 132,-376 153,-212 145,-432 342,-674 87,-108 137,-182 216,-292 61,-84 525,-307 639,-377 111,-69 201,-125 315,-192 180,-106 370,-446 541,-475zm-416 247c-57,-63 -46,-117 1,-187l97 21c32,92 -5,148 -98,166zm140 -295c-459,0 -195,222 -304,383l-783 469c-122,58 -165,60 -244,179 -113,172 -255,324 -350,497 -50,92 -58,168 -183,149 -112,-16 -219,-21 -276,103 -161,352 193,256 121,561 -48,204 -157,485 -133,694 14,118 58,230 75,349 19,134 -9,239 -9,370 0,249 114,693 229,916 101,197 377,472 544,624 247,225 396,306 680,472 311,181 557,228 916,252 295,21 697,-50 970,-168 290,-125 435,-302 628,-540 339,-420 641,-1130 641,-1674 0,-105 -76,-583 -113,-675 -63,-154 -148,-226 -247,-548 -141,-456 -102,-210 -278,-519 -98,-172 -294,-249 -463,-349 -530,-313 -845,372 -639,689 73,112 245,396 326,471 419,389 98,935 67,1400 -8,117 -48,131 -90,223 -85,188 58,367 -196,481 -123,55 -392,133 -525,133 -530,0 -573,-418 -708,-599 -280,-375 -120,-264 -240,-641 -143,-452 -90,-210 -26,-697 64,-485 64,-520 349,-971 115,-182 173,-398 324,-557 114,-122 429,-76 662,-219 709,-436 191,-1332 -400,-1332 -158,0 -191,74 -325,74z"/>
   <path class="fil2" d="M1612 4201c0,-325 134,-747 271,-1041 104,-222 53,-343 103,-557 48,-200 89,-289 206,-455 174,-248 566,-415 856,-464 208,-36 790,-234 974,-330 238,-125 78,-133 502,-108 206,13 356,9 529,132 165,118 232,78 407,253 129,129 182,235 270,391 163,291 13,228 -92,389 -279,426 -399,164 -614,113 -93,-22 -187,-18 -278,-43 -192,-55 -247,-153 -488,-153 -149,0 -666,146 -818,205 -290,112 -394,216 -555,477 -264,426 -429,1131 -416,1629 5,173 68,765 119,914 85,248 214,451 381,651 392,467 635,749 1297,749 218,0 642,-135 853,-219 234,-93 387,-328 524,-526 72,-104 157,-206 240,-302 116,-135 185,-131 339,-185 170,-60 158,-149 268,-257 94,-91 254,-113 286,47 28,141 -154,684 -220,831 -117,257 -217,442 -374,676 -86,128 -391,474 -514,553 -196,126 -600,215 -831,215 -143,0 -624,-61 -763,-96 -306,-78 -811,-430 -1082,-611 -189,-126 -274,-275 -442,-405 -89,-68 -161,-95 -232,-191 -374,-502 -183,-103 -511,-758 -251,-501 -195,-914 -195,-1524zm2577 -3091c-30,7 -259,156 -355,190 -136,48 -260,95 -394,149 -429,172 -1011,95 -1433,751 -202,313 -109,618 -221,880 -359,843 -284,980 -284,1866 0,395 50,536 220,880 57,115 110,257 182,360 78,112 184,173 265,294 110,164 116,157 274,268 114,79 183,166 276,265 194,207 1068,752 1378,807 536,95 1340,163 1763,-243 444,-424 623,-785 871,-1331 66,-147 68,-278 117,-425 41,-126 92,-344 15,-463 -72,-111 -269,-110 -374,-48 -130,76 -164,202 -272,270 -228,141 -242,-26 -619,482 -152,204 -277,452 -525,558 -207,89 -649,224 -868,210 -343,-23 -517,-79 -782,-300 -122,-102 -415,-457 -507,-594 -203,-304 -242,-468 -273,-828 -35,-398 -82,-580 -9,-994 85,-480 273,-1204 756,-1428 135,-63 700,-229 838,-235 188,-7 253,55 410,121 152,64 308,34 449,109 163,88 208,115 397,50 228,-78 155,-123 285,-257 182,-188 271,-195 -49,-714 -68,-110 -159,-201 -252,-290 -117,-113 -230,-116 -357,-201 -167,-112 -215,-111 -414,-128 -82,-7 -451,-43 -508,-31z"/>
   <path class="fil2" d="M1346 897c22,-73 50,-119 119,-154l9 -29 197 -145 173 -77c71,-58 204,-105 295,-122 1074,-268 1260,-283 2377,-283 621,0 2919,265 2621,1301 -49,169 -247,322 -150,426 100,108 227,219 333,327 456,466 762,1138 893,1770 155,745 29,1553 -315,2230 -613,1204 -1824,1986 -3153,2166 -249,34 -1049,18 -1298,-29 -353,-66 -668,-160 -999,-298 -77,-18 -167,-53 -217,-114l-173 -66c-80,-50 -239,-116 -284,-196 -58,-22 -40,-6 -70,-59 -78,-21 -139,-96 -205,-142 -81,-39 -157,-101 -200,-181l-4 9c-85,-42 -278,-248 -320,-335l-86 -118 -48 -49 10 -6c-65,-32 -81,-69 -112,-133 -57,-52 -129,-164 -160,-237l-61 -121c-92,-113 -195,-396 -243,-539 -19,-214 -136,-489 -158,-737l-33 -88c-36,-443 25,-770 133,-1191 22,-87 85,-270 90,-343 38,-105 154,-422 237,-471l68 -155c43,-78 113,-189 180,-247l35 -70 50 -48 21 -40 113 -128 98 -99 48 -47 29 -45 131 -130 75 -53 62 -76c-17,-42 -97,-119 -130,-174 -53,-87 -57,-134 -84,-230 -1,-132 -3,-327 106,-424zm2238 -879c-615,41 -2004,215 -2338,845 -178,335 -104,470 32,783 63,147 -168,260 -410,549 -1344,1608 -1098,3911 535,5254 587,482 1502,919 2285,949 325,13 754,16 1076,-4 448,-27 1235,-292 1617,-533 503,-318 774,-532 1165,-986 767,-891 1010,-2202 682,-3322 -151,-517 -393,-994 -757,-1393 -85,-93 -160,-188 -252,-273 -128,-115 -166,-122 -69,-284 153,-254 144,-588 -45,-821 -635,-783 -2599,-825 -3521,-764z"/>
   <path class="fil2" d="M16021 2990l52 76c-42,96 -182,93 -274,78 -34,-28 -78,-78 -82,-127l304 -27zm-76 -110c-111,21 -357,-43 -357,152 0,67 46,118 90,166 71,77 75,72 182,72 121,0 312,-21 338,-172 14,-80 -24,-123 -71,-180 -71,-84 -97,-54 -182,-38z"/>
   <path class="fil2" d="M13124 3642c80,-98 156,-117 257,-34 -47,104 -178,99 -257,34zm61 -203c-384,188 -108,432 148,368 102,-26 208,-152 165,-258 -32,-81 -229,-151 -313,-110z"/>
   <path class="fil1" d="M15717 3017c4,49 48,99 82,127 92,15 232,18 274,-78l-52 -76 -304 27z"/>
   <path class="fil1" d="M8505 3598c66,9 144,-46 186,-98l-29 -121 -82 -10c-78,43 -98,148 -75,229z"/>
   <path class="fil1" d="M13124 3642c79,65 210,70 257,-34 -101,-83 -177,-64 -257,34z"/>
   <path class="fil1" d="M10415 1891c93,-18 130,-74 98,-166l-97 -21c-47,70 -58,124 -1,187z"/>
   <path class="fil1" d="M19490 7577c15,-68 21,-95 -27,-149 -82,16 -110,70 -88,156l115 -7z"/>
   <path class="fil3" d="M518 6232c-27,-100 -82,-172 -120,-265 -36,-89 -51,-209 -123,-274 48,143 151,426 243,539z"/>
   <path class="fil4" d="M307 3334c59,-52 171,-362 237,-471 -83,49 -199,366 -237,471z"/>
   <path class="fil4" d="M1392 1801l89 -68c-22,-57 -100,-123 -135,-186 -40,-72 -57,-176 -106,-226 27,96 31,143 84,230 33,55 113,132 130,174l-62 76z"/>
   <path class="fil5" d="M1295 7231l-320 -335c42,87 235,293 320,335z"/>
   <path class="fil6" d="M2058 7800c-36,-58 -215,-161 -284,-196 45,80 204,146 284,196z"/>
   <path class="fil7" d="M612 2708c69,-45 144,-171 180,-247 -67,58 -137,169 -180,247z"/>
   <path class="fil8" d="M739 6590c-18,-60 -111,-199 -160,-237 31,73 103,185 160,237z"/>
   <path class="fil9" d="M1474 714c74,-20 160,-76 197,-145l-197 145z"/>
   <path class="fil10" d="M1499 7403l-200 -181c43,80 119,142 200,181z"/>
   <path class="fil11" d="M1844 492l295 -122c-91,17 -224,64 -295,122z"/>
   <path class="fil12" d="M2448 7980l-217 -114c50,61 140,96 217,114z"/>
   <path class="fil13" d="M1346 897l119 -154c-69,35 -97,81 -119,154z"/>
   <path class="fil14" d="M851 6723c-35,-45 -65,-105 -112,-133 31,64 47,101 112,133z"/>
   <path class="fil15" d="M1186 1984c65,-33 98,-66 131,-130l-131 130z"/>
   <path class="fil16" d="M898 2303c56,-31 86,-71 113,-128l-113 128z"/>
   <path class="fil17" d="M1774 7604l-70 -59c30,53 12,37 70,59z"/>
   <path class="fil18" d="M117 4956c-5,-57 4,-50 -33,-88l33 88z"/>
   <polygon class="fil19" points="1109,2076 1157,2029 "/>
   <polygon class="fil20" points="889,6778 841,6729 "/>
   <polygon class="fil21" points="827,2391 877,2343 "/>
  </g>
 </g>
</svg>
